<svg xmlns="http://www.w3.org/2000/svg" xmlns:xlink="http://www.w3.org/1999/xlink" version="1.1" id="Capa_1" x="0" y="0" viewBox="0 0 505.15 505.15" xml:space="preserve" width="512" height="512" enable-background="new 0 0 505.145 505.145">
  <path d="M68.54 164.72h-1.29c-16.59 0-30.11 13.57-30.11 30.11v131.11c0 16.61 13.53 30.13 30.11 30.13h1.32c16.59 0 30.11-13.57 30.11-30.13V194.83C98.65 178.28 85.11 164.72 68.54 164.72z" fill="#7cb342"/>
  <path d="M113.09 376.54c0 15.23 12.45 27.63 27.68 27.63h29.57v70.82c0 16.63 13.57 30.16 30.11 30.16h1.29c16.61 0 30.16-13.55 30.16-30.16v-70.82h41.33v70.82c0 16.63 13.61 30.16 30.16 30.16h1.27c16.61 0 30.13-13.55 30.13-30.16v-70.82h29.6c15.21 0 27.65-12.4 27.65-27.63V169.53H113.09V376.54z" fill="#7cb342"/>
  <path d="M322.04 43.98l23.49-36.26c1.51-2.29 0.84-5.41-1.47-6.9 -2.29-1.51-5.41-0.88-6.9 1.47l-24.35 37.51c-18.27-7.48-38.68-11.69-60.23-11.69 -21.57 0-41.93 4.21-60.25 11.69l-24.31-37.51c-1.49-2.35-4.64-2.98-6.95-1.47 -2.31 1.49-2.98 4.62-1.47 6.9l23.51 36.26c-42.39 20.77-70.97 59.92-70.97 104.83 0 2.76 0.17 5.48 0.41 8.18h280.05c0.24-2.7 0.39-5.41 0.39-8.18C393.01 103.91 364.41 64.76 322.04 43.98zM187.66 108.91c-7.44 0-13.48-6-13.48-13.46 0-7.46 6.04-13.44 13.48-13.44 7.49 0 13.48 5.98 13.48 13.44S195.1 108.91 187.66 108.91zM317.49 108.91c-7.44 0-13.48-6-13.48-13.46 0-7.46 6.04-13.44 13.48-13.44 7.46 0 13.46 5.98 13.46 13.44C330.95 102.91 324.95 108.91 317.49 108.91z" fill="#7cb342"/>
  <path d="M437.88 164.72h-1.25c-16.59 0-30.16 13.57-30.16 30.11v131.11c0 16.61 13.59 30.13 30.16 30.13h1.27c16.61 0 30.11-13.57 30.11-30.13V194.83C468.01 178.28 454.46 164.72 437.88 164.72z" fill="#7cb342"/>
</svg>
