<svg width="256" height="272" viewBox="0 0 256 272" version="1.1" xmlns="http://www.w3.org/2000/svg" xmlns:xlink="http://www.w3.org/1999/xlink" preserveAspectRatio="xMidYMid">
  <path d="M0.1 45.52L125.91 0.7 255.1 44.73 234.19 211.18 125.91 271.14 19.32 211.97 0.1 45.52Z" fill="#E23237"/>
  <path d="M255.1 44.73L125.91 0.7 125.91 271.14 234.19 211.27 255.1 44.73 255.1 44.73Z" fill="#B52E31"/>
  <path d="M126.11 32.27L126.11 32.27 47.71 206.69 77 206.19 92.74 166.85 126.21 166.85 126.31 166.85 163.06 166.85 180.3 206.69 208.29 207.19 126.11 32.27 126.11 32.27ZM126.31 88.16L152.8 143.54 127.4 143.54 126.11 143.54 103 143.54 126.31 88.16 126.31 88.16Z" fill="#FFFFFF"/>
</svg>
