<svg width="256" height="256" viewBox="0 0 256 256" version="1.1" xmlns="http://www.w3.org/2000/svg" xmlns:xlink="http://www.w3.org/1999/xlink" preserveAspectRatio="xMidYMid">
  <path d="M0 222.99C0 241.22 14.78 256 33.01 256L222.99 256C241.22 256 256 241.22 256 222.99L256 33.01C256 14.78 241.22 0 222.99 0L33.01 0C14.78 0 0 14.78 0 33.01L0 222.99Z" fill="#563D7C"/>
  <path d="M106.16 113.24L106.16 76.98 138.07 76.98C141.11 76.98 144.04 77.24 146.86 77.74 149.68 78.25 152.18 79.16 154.35 80.46 156.52 81.76 158.26 83.57 159.56 85.89 160.86 88.2 161.51 91.17 161.51 94.79 161.51 101.3 159.56 106 155.65 108.9 151.75 111.79 146.75 113.24 140.67 113.24L106.16 113.24 106.16 113.24ZM72.07 50.5L72.07 205.5 147.19 205.5C154.13 205.5 160.9 204.63 167.48 202.89 174.07 201.16 179.93 198.48 185.07 194.86 190.21 191.24 194.29 186.58 197.33 180.86 200.37 175.14 201.89 168.38 201.89 160.56 201.89 150.87 199.54 142.58 194.84 135.71 190.13 128.83 183.01 124.02 173.45 121.27 180.4 117.94 185.65 113.67 189.19 108.46 192.74 103.25 194.51 96.74 194.51 88.92 194.51 81.69 193.32 75.61 190.93 70.69 188.54 65.77 185.18 61.82 180.84 58.86 176.49 55.89 171.28 53.76 165.21 52.45 159.13 51.15 152.4 50.5 145.02 50.5L72.07 50.5 72.07 50.5ZM106.16 179.02L106.16 136.47 143.28 136.47C150.66 136.47 156.59 138.17 161.08 141.57 165.57 144.97 167.81 150.65 167.81 158.61 167.81 162.66 167.12 165.99 165.75 168.6 164.37 171.2 162.53 173.26 160.21 174.78 157.9 176.3 155.22 177.39 152.18 178.04 149.14 178.69 145.96 179.02 142.63 179.02L106.16 179.02 106.16 179.02Z" fill="#FFFFFF"/>
</svg>
