<svg xmlns="http://www.w3.org/2000/svg" xmlns:xlink="http://www.w3.org/1999/xlink" version="1.1" id="Capa_1" x="0" y="0" viewBox="0 0 312.55 312.55" xml:space="preserve" width="512" height="512" enable-background="new 0 0 312.553 312.553">
  <path d="M302.55 0H10C4.48 0 0 4.48 0 10v292.55c0 5.52 4.48 10 10 10h292.55c5.52 0 10-4.48 10-10V10C312.55 4.48 308.08 0 302.55 0zM148.09 193.29c-9.48 8.3-21.59 12.87-34.1 12.87 -28.11 0-50.98-22.4-50.98-49.93 0-27.47 22.87-49.82 50.98-49.82 12.53 0 24.6 4.53 33.99 12.76 3.87 3.39 4.26 9.28 0.87 13.16 -3.39 3.87-9.28 4.26-13.16 0.87 -5.99-5.24-13.69-8.13-21.7-8.13 -17.83 0-32.33 13.98-32.33 31.17 0 17.25 14.5 31.29 32.33 31.29 7.99 0 15.74-2.93 21.82-8.25 3.88-3.39 9.77-3 13.16 0.88C152.35 184.01 151.96 189.9 148.09 193.29zM240.22 162.29c5.15 0 9.32 4.17 9.32 9.32s-4.17 9.32-9.32 9.32h-10.87l-3.38 14.9c-0.98 4.33-4.83 7.27-9.09 7.27 -0.68 0-1.38-0.07-2.07-0.23 -5.02-1.14-8.17-6.13-7.03-11.15l2.44-10.78h-20.2l-3.38 14.9c-0.98 4.33-4.83 7.27-9.08 7.27 -0.68 0-1.38-0.07-2.07-0.23 -5.02-1.14-8.17-6.13-7.03-11.15l2.45-10.8c-5.01-0.16-9.02-4.26-9.02-9.31 0-5.15 4.17-9.32 9.32-9.32h3.92l2.73-12.02h-6.64c-5.15 0-9.32-4.17-9.32-9.32 0-5.15 4.17-9.32 9.32-9.32h10.87l3.38-14.9c1.14-5.02 6.13-8.17 11.15-7.03 5.02 1.14 8.17 6.13 7.03 11.15l-2.44 10.78h20.2l3.38-14.9c1.14-5.02 6.13-8.17 11.15-7.03 5.02 1.14 8.17 6.13 7.03 11.15l-2.45 10.8c5.01 0.16 9.02 4.26 9.02 9.31 0 5.15-4.17 9.32-9.32 9.32h-3.92l-2.72 12.02H240.22z" fill="#7cb342"/>
  <polygon points="194.26 162.29 214.46 162.29 217.18 150.27 196.98 150.27 " fill="#7cb342"/>
</svg>
