<svg width="256" height="361" viewBox="0 0 256 361" version="1.1" xmlns="http://www.w3.org/2000/svg" xmlns:xlink="http://www.w3.org/1999/xlink" preserveAspectRatio="xMidYMid">
  <path d="M127.84 360.09L23.66 331.17 0.45 70.77 255.55 70.77 232.31 331.13 127.84 360.09 127.84 360.09Z" fill="#264DE4"/>
  <path d="M212.42 314.55L232.28 92.06 128 92.06 128 337.95 212.42 314.55 212.42 314.55Z" fill="#2965F1"/>
  <path d="M53.67 188.64L56.53 220.57 128 220.57 128 188.64 53.67 188.64 53.67 188.64Z" fill="#EBEBEB"/>
  <path d="M47.92 123.99L50.82 155.93 128 155.93 128 123.99 47.92 123.99 47.92 123.99Z" fill="#EBEBEB"/>
  <path d="M128 271.58L127.86 271.62 92.29 262.01 90.02 236.54 57.96 236.54 62.43 286.69 127.85 304.85 128 304.81 128 271.58 128 271.58Z" fill="#EBEBEB"/>
  <path d="M60.48 0L99.16 0 99.16 16.18 76.66 16.18 76.66 32.35 99.16 32.35 99.16 48.53 60.48 48.53 60.48 0 60.48 0Z" fill="#000000"/>
  <path d="M106.9 0L145.58 0 145.58 14.07 123.08 14.07 123.08 16.88 145.58 16.88 145.58 49.23 106.9 49.23 106.9 34.46 129.41 34.46 129.41 31.65 106.9 31.65 106.9 0 106.9 0Z" fill="#000000"/>
  <path d="M153.32 0L192 0 192 14.07 169.49 14.07 169.49 16.88 192 16.88 192 49.23 153.32 49.23 153.32 34.46 175.82 34.46 175.82 31.65 153.32 31.65 153.32 0 153.32 0Z" fill="#000000"/>
  <path d="M202.13 188.64L207.89 123.99 127.89 123.99 127.89 155.93 172.89 155.93 169.99 188.64 127.89 188.64 127.89 220.57 167.22 220.57 163.51 261.99 127.89 271.61 127.89 304.83 193.36 286.69 193.84 281.29 201.35 197.21 202.13 188.64 202.13 188.64Z" fill="#FFFFFF"/>
</svg>
