<svg xmlns="http://www.w3.org/2000/svg" xmlns:xlink="http://www.w3.org/1999/xlink" version="1.1" id="Capa_1" x="0" y="0" viewBox="0 0 58.2 58.2" xml:space="preserve" width="512" height="512" enable-background="new 0 0 58.201 58.201">
  <path d="M31.71 33.07c-0.87 0.03-1.74 0.04-2.61 0.04 -0.87 0-1.74-0.01-2.61-0.04 -7.34-0.2-13.19-1.24-17.4-2.72C7.1 29.69 5.41 28.9 4.1 28v7.11 0.5 0.5V37.4c2.85 2.97 12.39 5.71 25 5.71s22.15-2.74 25-5.71v-1.29 -0.5 -0.5V28c-1.32 0.91-3.03 1.7-5.03 2.37C44.87 31.84 39.03 32.87 31.71 33.07z" fill="#2196f3"/>
  <path d="M4.1 14.89V22v0.5V23v1.29c2.64 2.75 11.03 5.31 22.29 5.67 0.12 0 0.23 0.01 0.35 0.01 0.33 0.01 0.65 0.02 0.98 0.02C28.17 30 28.64 30 29.1 30s0.93 0 1.38-0.01c0.33 0 0.66-0.01 0.98-0.02 0.12 0 0.23 0 0.35-0.01 11.25-0.36 19.65-2.91 22.29-5.67V23v-0.5V22v-7.11C49.23 18.23 38.94 20 29.1 20S8.97 18.23 4.1 14.89z" fill="#2196f3"/>
  <path d="M53.97 8.54C52.84 4.24 44.22 0 29.1 0 14.02 0 5.4 4.22 4.25 8.51 4.16 8.66 4.1 8.82 4.1 9v0.5 1.81C6.94 14.27 16.42 17 29.1 17s22.16-2.73 25-5.69V9.5 9C54.1 8.83 54.04 8.68 53.97 8.54z" fill="#2196f3"/>
  <path d="M4.1 41v8.2c0 0.16 0.04 0.32 0.12 0.45 1.18 4.89 11.75 8.55 24.88 8.55 13.11 0 23.66-3.64 24.88-8.52 0.08-0.14 0.13-0.31 0.13-0.48v-8.2c-4.13 2.91-12.65 5.2-25 5.2C16.75 46.2 8.23 43.91 4.1 41z" fill="#2196f3"/>
</svg>
