<?xml version="1.0" encoding="utf-8"?>
<!-- Generator: Adobe Illustrator 17.0.0, SVG Export Plug-In . SVG Version: 6.00 Build 0)  -->
<!DOCTYPE svg PUBLIC "-//W3C//DTD SVG 1.1//EN" "http://www.w3.org/Graphics/SVG/1.1/DTD/svg11.dtd">
<svg version="1.1" id="Layer_1" xmlns="http://www.w3.org/2000/svg" xmlns:xlink="http://www.w3.org/1999/xlink" x="0px" y="0px"
	 width="339px" height="337.026px" viewBox="0 0 339 337.026" enable-background="new 0 0 339 337.026" xml:space="preserve">
<g>
	<path fill="#4B5E66" d="M766.25,327.689H642.164c-7.785,0-14.095-6.31-14.095-14.095V65.784c0-7.785,6.31-14.095,14.095-14.095
		h124.091c7.78,0,14.09,6.31,14.09,14.095v247.815C780.345,321.379,774.035,327.689,766.25,327.689z"/>
	<rect x="628.069" y="80.241" fill="#2D1930" width="152.276" height="209.379"/>
	<g>
		<path fill="#273035" d="M723.241,61.206h-23.793c-2.627,0-4.759,2.127-4.759,4.759c0,2.632,2.132,4.759,4.759,4.759h23.793
			c2.627,0,4.759-2.127,4.759-4.759C728,63.333,725.868,61.206,723.241,61.206z"/>
		<path fill="#273035" d="M685.172,61.206h-4.759c-2.627,0-4.759,2.127-4.759,4.759c0,2.632,2.132,4.759,4.759,4.759h4.759
			c2.627,0,4.759-2.127,4.759-4.759C689.931,63.333,687.799,61.206,685.172,61.206z"/>
	</g>
	
		<line fill="none" stroke="#CBD4D8" stroke-width="2" stroke-linecap="round" stroke-miterlimit="10" x1="623.31" y1="94.517" x2="623.31" y2="99.275"/>
	
		<line fill="none" stroke="#CBD4D8" stroke-width="2" stroke-linecap="round" stroke-miterlimit="10" x1="623.31" y1="113.551" x2="623.31" y2="118.31"/>
	
		<line fill="none" stroke="#CBD4D8" stroke-width="2" stroke-linecap="round" stroke-miterlimit="10" x1="623.31" y1="132.586" x2="623.31" y2="137.344"/>
	<circle fill="#273035" cx="704.207" cy="308.655" r="14.276"/>
	<path fill="#DD352E" d="M755.833,270.586h-17.597c-0.395,0-0.719-0.324-0.719-0.719V252.27c0-0.395,0.324-0.719,0.719-0.719h17.597
		c0.395,0,0.719,0.324,0.719,0.719v17.597C756.552,270.262,756.228,270.586,755.833,270.586z"/>
	<path fill="#3083C9" d="M713.006,270.586h-17.597c-0.395,0-0.719-0.324-0.719-0.719V252.27c0-0.395,0.324-0.719,0.719-0.719h17.597
		c0.395,0,0.719,0.324,0.719,0.719v17.597C713.724,270.262,713.401,270.586,713.006,270.586z"/>
	<path fill="#A4E869" d="M670.178,270.586h-17.597c-0.395,0-0.719-0.324-0.719-0.719V252.27c0-0.395,0.324-0.719,0.719-0.719h17.597
		c0.395,0,0.719,0.324,0.719,0.719v17.597C670.897,270.262,670.573,270.586,670.178,270.586z"/>
</g>
<g>
	<path fill="#151E23" d="M336.44,182.365h-42.98V134.05l-84.875-0.57l-33.32-13.802v-17.902H164.52v17.902l-33.32,13.802
		l-84.875,0.57v48.315H3.345v64.47h96.704v-64.47H57.07V144.72l74.097-0.494L164.52,159v23.365h-42.98v64.47h96.704v-64.47h-42.98
		V159l33.353-14.774l74.097,0.494v37.645h-42.98v64.47h42.98v16.118H164.52v26.863h-21.489c-11.852,0-21.49,9.638-21.49,21.49
		s9.638,21.49,21.49,21.49h53.725c11.852,0,21.49-9.638,21.49-21.49s-9.638-21.49-21.49-21.49h-21.49v-16.118H293.46v-26.863h42.98
		V182.365z M89.305,236.09H14.091v-42.98h75.214V236.09z M207.5,236.09h-75.215v-42.98H207.5V236.09z M169.893,149.625
		l-23.967-10.617l23.967-9.923l23.967,9.928L169.893,149.625z M207.5,311.304c0,5.925-4.819,10.745-10.745,10.745h-53.724
		c-5.925,0-10.745-4.819-10.745-10.745c0-5.925,4.819-10.745,10.745-10.745h53.725C202.681,300.56,207.5,305.379,207.5,311.304z
		 M325.694,236.09h-75.215v-42.98h75.215V236.09z"/>
	<path fill="#333333" d="M202.127,80.288h-26.863V57.81c6.238-2.224,10.745-8.134,10.745-15.129c0-8.886-7.232-16.118-16.118-16.118
		c-8.886,0-16.118,7.232-16.118,16.118c0,6.995,4.507,12.905,10.745,15.129v22.479h-26.863v10.745h64.47L202.127,80.288
		L202.127,80.288z M169.893,37.308c2.96,0,5.373,2.412,5.373,5.373c0,2.96-2.412,5.373-5.373,5.373c-2.96,0-5.373-2.412-5.373-5.373
		C164.52,39.72,166.932,37.308,169.893,37.308z"/>
	<rect x="83.933" y="37.308" fill="#151E23" width="26.863" height="10.745"/>
	
		<rect x="89.447" y="65.062" transform="matrix(-0.9238 0.3828 -0.3828 -0.9238 224.8809 96.122)" fill="#151E23" width="26.86" height="10.745"/>
	
		<rect x="231.529" y="57" transform="matrix(-0.3827 0.9239 -0.9239 -0.3827 392.6331 -121.4824)" fill="#151E23" width="10.745" height="26.865"/>
	<rect x="228.99" y="37.308" fill="#151E23" width="26.863" height="10.745"/>
	
		<rect x="223.461" y="9.557" transform="matrix(-0.9238 0.3828 -0.3828 -0.9238 461.4527 -61.9629)" fill="#151E23" width="26.86" height="10.745"/>
	
		<rect x="97.515" y="1.489" transform="matrix(-0.3827 0.9239 -0.9239 -0.3827 156.0472 -74.4239)" fill="#151E23" width="10.745" height="26.865"/>
	<g>
		<path fill="#EFCE4A" d="M201.81,93.701h-63.31c-1.457,0-2.516-1.383-2.136-2.791l14.38-39.423c0.26-0.965,1.136-1.635,2.136-1.635
			h63.31c1.457,0,2.136,1.392,2.136,2.791l-14.38,39.423C203.685,93.031,202.81,93.701,201.81,93.701z"/>
		<path fill="#EBBA16" d="M207.388,37.122h-3.208v12.73h5.658v-10.28C209.838,38.219,208.741,37.122,207.388,37.122z"/>
		<path fill="#EBBA16" d="M141.943,27.221h-3.208c-1.352,0-2.45,1.096-2.45,2.45v60.438c0.098,0.003,0.195,0.008,0.29,0.014
			l5.368-14.637V27.221z"/>
		<path fill="#F4EFDC" d="M150.743,51.488c0.26-0.965,1.136-1.635,2.136-1.635h2.829h48.473V32.879V11.662h-21.217H150.43v40.682
			L150.743,51.488z"/>
		<g>
			<path fill="#CEC9AE" d="M160.332,34.293h33.947c0.781,0,1.414-0.632,1.414-1.414s-0.634-1.414-1.414-1.414h-33.947
				c-0.781,0-1.414,0.632-1.414,1.414S159.551,34.293,160.332,34.293z"/>
			<path fill="#CEC9AE" d="M160.332,24.392h14.145c0.781,0,1.414-0.632,1.414-1.414c0-0.782-0.634-1.414-1.414-1.414h-14.145
				c-0.781,0-1.414,0.632-1.414,1.414S159.551,24.392,160.332,24.392z"/>
			<path fill="#CEC9AE" d="M194.279,41.366h-33.947c-0.781,0-1.414,0.632-1.414,1.414s0.634,1.414,1.414,1.414h33.947
				c0.781,0,1.414-0.632,1.414-1.414S195.06,41.366,194.279,41.366z"/>
		</g>
		<polygon fill="#CEC9AE" points="150.43,52.344 150.43,14.491 146.187,14.491 146.187,63.978 		"/>
		<polygon fill="#D1BF86" points="146.187,63.978 146.187,17.32 141.943,17.32 141.943,75.612 		"/>
	</g>
</g>
</svg>
