<?xml version="1.0" encoding="utf-8"?>
<!-- Generator: Adobe Illustrator 17.0.0, SVG Export Plug-In . SVG Version: 6.00 Build 0)  -->
<!DOCTYPE svg PUBLIC "-//W3C//DTD SVG 1.1//EN" "http://www.w3.org/Graphics/SVG/1.1/DTD/svg11.dtd">
<svg version="1.1" id="Layer_1" xmlns="http://www.w3.org/2000/svg" xmlns:xlink="http://www.w3.org/1999/xlink" x="0px" y="0px"
	 width="339px" height="337.026px" viewBox="0 0 339 337.026" enable-background="new 0 0 339 337.026" xml:space="preserve">
<g>
	<path fill="#4B5E66" d="M766.25,327.689H642.164c-7.785,0-14.095-6.31-14.095-14.095V65.784c0-7.785,6.31-14.095,14.095-14.095
		h124.091c7.78,0,14.09,6.31,14.09,14.095v247.815C780.345,321.379,774.035,327.689,766.25,327.689z"/>
	<rect x="628.069" y="80.241" fill="#2D1930" width="152.276" height="209.379"/>
	<g>
		<path fill="#273035" d="M723.241,61.206h-23.793c-2.627,0-4.759,2.127-4.759,4.759c0,2.632,2.132,4.759,4.759,4.759h23.793
			c2.627,0,4.759-2.127,4.759-4.759C728,63.333,725.868,61.206,723.241,61.206z"/>
		<path fill="#273035" d="M685.172,61.206h-4.759c-2.627,0-4.759,2.127-4.759,4.759c0,2.632,2.132,4.759,4.759,4.759h4.759
			c2.627,0,4.759-2.127,4.759-4.759C689.931,63.333,687.799,61.206,685.172,61.206z"/>
	</g>
	
		<line fill="none" stroke="#CBD4D8" stroke-width="2" stroke-linecap="round" stroke-miterlimit="10" x1="623.31" y1="94.517" x2="623.31" y2="99.275"/>
	
		<line fill="none" stroke="#CBD4D8" stroke-width="2" stroke-linecap="round" stroke-miterlimit="10" x1="623.31" y1="113.551" x2="623.31" y2="118.31"/>
	
		<line fill="none" stroke="#CBD4D8" stroke-width="2" stroke-linecap="round" stroke-miterlimit="10" x1="623.31" y1="132.586" x2="623.31" y2="137.344"/>
	<circle fill="#273035" cx="704.207" cy="308.655" r="14.276"/>
	<path fill="#DD352E" d="M755.833,270.586h-17.597c-0.395,0-0.719-0.324-0.719-0.719V252.27c0-0.395,0.324-0.719,0.719-0.719h17.597
		c0.395,0,0.719,0.324,0.719,0.719v17.597C756.552,270.262,756.228,270.586,755.833,270.586z"/>
	<path fill="#3083C9" d="M713.006,270.586h-17.597c-0.395,0-0.719-0.324-0.719-0.719V252.27c0-0.395,0.324-0.719,0.719-0.719h17.597
		c0.395,0,0.719,0.324,0.719,0.719v17.597C713.724,270.262,713.401,270.586,713.006,270.586z"/>
	<path fill="#A4E869" d="M670.178,270.586h-17.597c-0.395,0-0.719-0.324-0.719-0.719V252.27c0-0.395,0.324-0.719,0.719-0.719h17.597
		c0.395,0,0.719,0.324,0.719,0.719v17.597C670.897,270.262,670.573,270.586,670.178,270.586z"/>
</g>
<g>
	<rect x="167.612" y="200.376" fill="#BA3232" width="10.611" height="53.055"/>
	<rect x="284.333" y="110.183" fill="#BA3232" width="10.611" height="10.611"/>
	
		<rect x="272.248" y="65.095" transform="matrix(0.8661 -0.4999 0.4999 0.8661 1.9751 148.1748)" fill="#BA3232" width="10.611" height="10.611"/>
	
		<rect x="239.229" y="32.09" transform="matrix(0.4999 -0.8661 0.8661 0.4999 89.9056 230.4896)" fill="#BA3232" width="10.611" height="10.611"/>
	<rect x="194.14" y="19.99" fill="#BA3232" width="10.611" height="10.611"/>
	
		<rect x="239.231" y="188.302" transform="matrix(0.8661 -0.4999 0.4999 0.8661 -64.0365 148.1686)" fill="#BA3232" width="10.611" height="10.611"/>
	
		<rect x="272.242" y="155.284" transform="matrix(0.4999 -0.8661 0.8661 0.4999 -0.281 320.6926)" fill="#BA3232" width="10.611" height="10.611"/>
	<rect x="188.834" y="200.376" fill="#BA3232" width="10.611" height="37.138"/>
	<rect x="210.056" y="200.376" fill="#BA3232" width="10.611" height="26.527"/>
</g>
<circle fill="#FCC24C" cx="199.445" cy="115.488" r="68.971"/>
<path fill="#151E23" d="M284.492,265.326l3.655,14.633h-14.961c-1.48-7.269-5.985-13.396-12.086-17.184l33.844-10.77v-71.279
	c14.229-19.683,22.007-43.866,21.158-69.099C314.096,52.326,262.92,4.073,202.023,4.073h-35.579
	c-18.431,0-35.467,3.709-50.625,11.03c-40.046,19.338-64.928,58.79-64.928,102.958c0,13.598-6.091,26.278-16.712,34.772
	l-11.555,9.242l2.578,4.027c17.763,27.705,30.936,57.904,39.154,89.769l1.655,6.425c2.854,11.051,9.948,20.018,19.471,24.612
	c5.035,2.43,10.489,3.64,15.927,3.64c5.963,0,11.911-1.448,17.264-4.35l79.566-43.102c13.757-7.444,28.14-14.373,42.057-21.073
	c4.404-2.117,8.807-4.239,13.2-6.377c11.699-5.698,22.044-13.327,30.835-22.325v50.933l-106.11,33.764v-8.669h-10.611v63.666
	h144.739l-17.566-70.255L284.492,265.326z M248.85,206.095c-4.377,2.133-8.765,4.25-13.152,6.361
	c-14.028,6.749-28.528,13.731-42.502,21.307l-79.566,43.096c-7.242,3.926-16.038,4.096-23.53,0.493
	c-6.706-3.231-11.736-9.688-13.805-17.71l-1.655-6.425c-0.44-1.708-0.95-3.395-1.417-5.093H88.03v-10.611H70.097
	c-8.032-25.668-19.201-50.19-33.414-73.094l4.117-3.295c13.158-10.526,20.702-26.22,20.702-43.065
	c0-40.067,22.58-75.852,58.933-93.403c13.709-6.616,29.191-9.974,46.014-9.974h1.162V48.48
	c-25.052,11.953-42.444,37.451-42.444,67.008c0,40.958,33.318,74.277,74.277,74.277s74.277-33.318,74.277-74.277
	s-33.318-74.277-74.277-74.277c-7.375,0-14.489,1.114-21.222,3.13V14.684h23.8c55.241,0,101.658,43.654,103.467,97.308
	C306.839,151.735,284.603,188.677,248.85,206.095z M150.873,74.418l11.301,11.301c-6.542,8.17-10.478,18.511-10.478,29.769
	s3.937,21.599,10.478,29.769l-11.301,11.301c-9.396-11.099-15.094-25.424-15.094-41.07S141.477,85.518,150.873,74.418z
	 M236.583,115.488c0,20.474-16.659,37.138-37.138,37.138s-37.138-16.665-37.138-37.138s16.659-37.138,37.138-37.138
	S236.583,95.014,236.583,115.488z M169.676,152.759c8.176,6.542,18.511,10.478,29.769,10.478s21.593-3.937,29.769-10.478
	l11.301,11.301c-11.099,9.396-25.424,15.094-41.07,15.094s-29.971-5.698-41.07-15.094L169.676,152.759z M248.017,156.558
	l-11.301-11.301c6.542-8.17,10.478-18.511,10.478-29.769s-3.937-21.599-10.478-29.769l11.301-11.301
	c9.396,11.099,15.094,25.424,15.094,41.07S257.413,145.459,248.017,156.558z M229.214,78.217
	c-8.176-6.542-18.511-10.478-29.769-10.478s-21.593,3.937-29.769,10.478l-11.301-11.301c11.099-9.396,25.424-15.094,41.07-15.094
	s29.971,5.698,41.07,15.094L229.214,78.217z M296.785,314.497L271.61,295.62c0.684-1.608,1.215-3.3,1.576-5.051H290.8
	L296.785,314.497z M249.12,311.595l5.406,10.807h-45.945l35.616-10.839l-0.021-0.08c0.997,0.117,1.984,0.308,3.019,0.308
	C247.852,311.791,248.473,311.643,249.12,311.595z M259.498,308.624c2.207-1.167,4.266-2.568,6.048-4.287l24.092,18.065H266.39
	L259.498,308.624z M247.194,301.18c-8.775,0-15.916-7.141-15.916-15.916c0-8.775,7.141-15.916,15.916-15.916
	c8.775,0,15.916,7.141,15.916,15.916C263.111,294.039,255.97,301.18,247.194,301.18z M222.747,274.976
	c-1.337,3.167-2.08,6.642-2.08,10.287c0,7.826,3.475,14.802,8.881,19.662l-51.325,15.619v-31.403L222.747,274.976z"/>
<path fill="#151E23" d="M199.445,88.961c-14.627,0-26.527,11.9-26.527,26.527s11.9,26.527,26.527,26.527s26.527-11.9,26.527-26.527
	S214.072,88.961,199.445,88.961z M199.445,131.405c-8.775,0-15.916-7.141-15.916-15.916s7.141-15.916,15.916-15.916
	s15.916,7.141,15.916,15.916S208.22,131.405,199.445,131.405z"/>
<rect x="72.113" y="136.71" fill="#3F3A34" width="37.138" height="10.611"/>
<rect x="241.889" y="279.958" fill="#3F3A34" width="10.611" height="10.611"/>
</svg>
