<svg width="256" height="192" viewBox="0 0 256 192" version="1.1" xmlns="http://www.w3.org/2000/svg" xmlns:xlink="http://www.w3.org/1999/xlink" preserveAspectRatio="xMidYMid">
  <path d="M94.92 42.19L77.96 44.94 62.49 51.72 49.36 59.99 36.85 75.25 29.79 82.73 22.96 85.25 21.15 80.83 24.31 76.27 25.02 69.84 27.13 69.93 29.45 72.04 28.82 65.49 26.26 63.77 26.34 61.27 20.27 64.7 14.77 71.19 13.62 76.99 15.98 81.63 18.17 89.51 22.63 91.62 27.32 91.39 31.76 88.81 28.8 103.86 31.76 120.6 28.5 128.33 17.8 139.85 19.7 146.74 24.77 154.72 34.33 161.44 39.39 162.14 45.03 162.33 41.51 176.76 54.44 182.06 70.55 184.18 76.06 180.58 76.48 170.83 82.63 160.65 83.05 152.6 97.89 153.66 111.66 152.39 97.89 160.65 100.22 170.61 108.91 184.18 117.38 187.78 124.17 185.03 126.92 179.52 141.12 168.71 143.87 171.04 166.13 171.89 170.58 168.28 171 161.92 169.52 159.17 168.46 142 161.04 127.17 162.31 120.6 166.76 122.93 179.27 134.59 185.41 135.01 192.19 132.26 198.98 127.17 202.37 116.15 222.29 117.42 234.37 112.76 244.12 103.65 251.11 90.51 252.81 75.03 251.32 57.02 247.51 40.92 243.69 35.83 238.4 34.13 229.07 44.3 220.59 47.27 213.18 34.98 205.76 28.2 201.73 25.66 185.62 12.3 172.7 5.31 159.77 4.25 144.72 6.79 131.58 11.67 122.47 19.09 115.26 27.77 107.85 29.89 94.92 42.19" fill="#FFFF00"/>
  <path d="M45.75 80.43C31.23 97.37 34.45 117.92 38.48 138.04 36.33 132.62 34.18 127.19 32.03 121.76 31.24 116.79 30.45 111.81 29.66 106.84 29.88 101.75 30.11 96.66 30.34 91.58 32.37 86.71 34.41 81.85 36.44 76.99 39.49 72.47 42.55 67.95 45.6 63.42 50.35 59.47 55.1 55.51 59.85 51.55 65.04 49.4 70.25 47.26 75.45 45.11 81.55 44.32 87.66 43.52 93.76 42.73 88.11 49.18 82.46 55.62 76.8 62.07 63.19 66.48 55.16 69.46 45.75 80.43" fill="#FFFFCC"/>
  <path d="M114.11 28.83C104.02 38.68 98.5 46.1 92.08 57.64 87.48 65.89 82.33 73.83 77.5 81.97 75.05 86.09 74.82 89.54 74.09 94.29 71.72 91.46 69.34 88.64 66.97 85.81 68.1 82.42 69.23 79.03 70.36 75.63 74.2 68.74 78.05 61.84 81.89 54.94 90.03 46.92 98.17 38.89 106.31 30.86 108.91 30.18 111.51 29.5 114.11 28.83" fill="#FFFFCC"/>
  <path d="M163.98 4.4C155.89 7.44 142.46 8.44 141.53 17.72 140.86 24.31 142.03 27.62 146 34.59 136.19 24.44 133.76 26.01 114.79 29.17 117.51 25.32 120.22 21.48 122.93 17.63 127.68 14.69 132.43 11.75 137.18 8.81 143.28 7.46 149.39 6.1 155.5 4.74 158.32 4.63 161.15 4.52 163.98 4.4" fill="#FFFFCC"/>
  <path d="M186.29 129.95C188.98 131.61 188.92 132.81 188.47 133.95 190.6 133.1 192.72 132.25 194.84 131.4 196.22 129.55 197.59 127.71 198.97 125.86 199.99 123.23 201.01 120.6 202.03 117.96 200.73 116.98 199.42 116 198.12 115.02 192.42 115.75 186.71 116.48 181.01 117.21 180.59 118.36 180.16 119.51 179.73 120.66 179.86 122.3 179.98 123.94 180.1 125.58 180.65 126.55 181.19 127.52 181.74 128.49 182.59 128.91 183.44 129.34 184.29 129.76 184.95 129.82 185.62 129.89 186.29 129.95" fill="#CCCC00"/>
  <path d="M184.7 100.69C176.12 103.16 176.19 103.84 173.65 112.35 177 106.99 179.47 104.28 184.7 100.69" fill="#CCCC00"/>
  <path d="M241.72 37.02C240.2 37.72 238.71 38.06 237.76 39.45 235.71 42.46 233.95 44.98 230.56 47.09 228.85 48.15 227.08 48.84 225.27 49.4 223.76 49.87 222.86 49.45 221.58 50.37 222.34 50.5 223.1 50.64 223.86 50.77L228.88 50.77C230.94 49.49 233 48.22 235.07 46.95 236.28 45.67 237.5 44.4 238.71 43.12 239.71 41.09 240.72 39.05 241.72 37.02" fill="#CCCC00"/>
  <path d="M105.11 56.05C101.73 65.28 98.79 73.19 93.68 81.55 100.22 74.5 104.19 68.5 107.95 60.52 109.4 57.42 109.68 53.78 113.74 55.14 113.92 58.23 114.57 61.33 114.76 64.42 116.95 48.7 123.13 42.13 137.51 36.03 133.44 36.51 129.38 37 125.31 37.48 121.49 38.33 117.67 39.18 113.85 40.03 111.96 42.76 110.08 45.49 108.2 48.22 107.17 50.83 106.14 53.44 105.11 56.05" fill="#CCCC00"/>
  <path d="M132.96 55.68C136.06 70.27 140.52 84.28 142.46 99.1 143.72 108.73 143.86 113.36 139.01 121.67 133.71 121.32 130.43 121.92 125.3 123.6 104.91 130.29 93.21 140.11 79.47 120.31 83.86 122.38 88.25 124.44 92.63 126.51 95.76 125.9 98.89 125.28 102.01 124.67 107.54 121.45 113.06 118.24 118.58 115.02 122.89 114.17 127.19 113.32 131.5 112.47 132.9 106.65 134.29 100.82 135.69 95 134.66 87.29 133.62 79.59 132.59 71.88 132.47 68.24 132.35 64.6 132.23 60.96 132.47 59.2 132.72 57.44 132.96 55.68" fill="#CCCC00"/>
  <path d="M168.09 145.96C166.37 157.82 172.03 164.19 169.69 167.46 169.02 168.39 168.13 170.01 167.12 170.45 163.54 172.03 158.61 170.15 158.26 171.08L146.43 171.08C144.85 170.41 143.27 169.75 141.69 169.08 144.12 166.23 146.55 163.37 148.98 160.52 151.34 155.37 153.71 150.21 156.07 145.05 157.59 139.83 159.11 134.62 160.62 129.4L162.99 129.4C164.69 134.92 166.39 140.44 168.09 145.96" fill="#CCCC00"/>
  <path d="M148.2 111.5C149.16 116.88 150.83 118.16 153.36 123.37 151.68 131.87 148.97 141.98 145.71 149.48 144.34 152.64 143.23 154.39 140.81 156.83 136.72 160.96 132.58 164.56 127.95 168.14 124.61 170.71 122.28 169.42 118.16 168.84 116.41 172.01 115.92 173.78 112.7 175.39 107.74 177.87 103.3 172.53 99.41 169.38 102.22 173.77 105.03 178.16 107.84 182.55 109.78 184.37 111.72 186.19 113.66 188.01 115.3 188.25 116.94 188.49 118.58 188.74 120.76 187.4 122.95 186.07 125.13 184.73 126.28 182.55 127.44 180.36 128.59 178.18 131.02 176.36 133.44 174.54 135.87 172.72 138.84 170.17 141.82 167.62 144.79 165.07 146.67 162.4 148.55 159.74 150.43 157.07 152.13 153.91 153.83 150.76 155.53 147.6 157.71 141.05 159.9 134.5 162.08 127.94 162.26 125.46 162.44 122.97 162.63 120.48 159.9 119.27 157.17 118.05 154.43 116.84 152.43 114.96 150.2 113.38 148.2 111.5" fill="#CCCC00"/>
  <path d="M82.9 149.42C92.09 149.42 101.79 148.91 110.21 145.05 112.59 141.48 114.94 138.56 117.85 135.41 115.2 140.41 114.37 143.25 113.66 148.88 112.75 150.21 111.84 151.54 110.93 152.88 104.02 153.06 97.1 153.24 90.18 153.43 87.94 153.18 85.69 152.94 83.45 152.7 83.21 152.45 82.96 152.21 82.72 151.97 82.78 151.12 82.84 150.27 82.9 149.42" fill="#CCCC00"/>
  <path d="M81.63 143.05C81.39 140.9 81.15 138.74 80.92 136.59 79.35 146.03 79.72 152.37 75.38 160.83 72.13 164.59 68.13 168.02 63.55 169.85 63.94 172.17 64.05 173.62 63.83 175.32 63.02 181.44 50.78 178.74 45.74 178.49 53.82 180.57 61.9 182.65 69.98 184.73 71.8 184 73.62 183.28 75.44 182.55 76.05 179.03 76.65 175.51 77.26 171.99 78.96 168.84 80.66 165.68 82.36 162.53 82.66 160.58 82.96 158.64 83.27 156.7 82.72 152.15 82.18 147.6 81.63 143.05" fill="#CCCC00"/>
  <path d="M67.98 89.72C67.72 94.31 67.43 96.23 69.45 100.29 72.03 105.44 75.19 110.29 77.99 115.38 78.29 111.99 78.59 108.59 78.9 105.19 75.26 100.03 71.62 94.88 67.98 89.72" fill="#CCCC00"/>
  <path d="M30.61 124.42C29.83 126.1 29.04 127.77 28.25 129.45 30.42 136.76 32.35 141.38 36.48 147.76 35.76 150.35 35.22 151.48 33.56 153.59 29.93 153.03 26.7 152.87 23.02 152.88 27.09 156.03 31.15 159.19 35.22 162.34 37.22 161.98 39.22 161.62 41.22 161.25 43.22 159.25 45.23 157.25 47.23 155.25 44.38 150.82 41.52 146.39 38.67 141.96 35.99 136.11 33.3 130.27 30.61 124.42" fill="#CCCC00"/>
  <path d="M241.75 34.6C244.22 45.74 247.42 56.02 247.12 67.42 246.76 81.42 244.03 99.1 231.06 107.54 216.54 116.99 199.49 112.52 183.56 108.47 190.05 111.14 196.54 113.81 203.03 116.48 209.1 116.78 215.17 117.08 221.23 117.39 225.36 116.17 229.49 114.96 233.61 113.75 236.83 111.08 240.04 108.41 243.26 105.74 245.69 100.64 248.11 95.54 250.54 90.45 251.45 84.56 252.36 78.68 253.27 72.79 252.54 67.03 251.81 61.26 251.09 55.5 249.75 49.8 248.41 44.09 247.08 38.39 245.3 37.13 243.52 35.86 241.75 34.6" fill="#CCCC00"/>
  <path d="M25.03 67.8C18.44 72.09 15.85 73.97 16.57 81.92 17.23 84.3 17.88 86.69 18.54 89.07 19.47 89.7 20.4 90.33 21.33 90.96 22.48 91.34 23.63 91.72 24.78 92.11 26.86 91.62 28.94 91.12 31.02 90.63 32.09 87.32 33.16 84 34.23 80.69 31.27 82.14 28.31 83.59 25.36 85.04L23.3 85.04C22.54 83.87 21.77 82.69 21 81.51 21.94 80.14 22.87 78.78 23.8 77.41 24.29 74.8 24.78 72.2 25.28 69.6 25.9 69.79 26.53 69.99 27.16 70.18 27.93 70.78 28.7 71.38 29.46 71.98 29.35 70.62 29.24 69.25 29.14 67.88 28.62 67 28.09 66.13 27.57 65.25 27.05 64.81 26.53 64.37 26.01 63.94 25.69 65.22 25.36 66.51 25.03 67.8" fill="#CCCC00"/>
  <path d="M172.94 5.13C178.79 10.56 185.97 15.29 190.65 21.93 192.46 24.5 194.47 25.81 190.62 29.44 194.69 28.28 196.21 28.41 199.47 28.8 205.4 29.52 210.95 37.95 211.31 43.99 211.24 44.55 209.66 45.84 205.08 47.1 204.99 47.28 202.49 46.76 202.55 46.93 203.03 48.23 203.66 48.43 204.64 49.04 204.85 50.49 204.98 52.73 205.97 54.31 208.86 54.26 211.68 54.58 214.5 55.14 215.45 56.71 215.31 58.29 215.23 59.87 216.32 59.69 217.41 59.51 218.5 59.32 218.2 56.84 217.9 54.35 217.6 51.86 218.57 50.22 219.54 48.58 220.51 46.95 219.11 43.79 217.72 40.64 216.32 37.48 213.65 34.93 210.98 32.39 208.31 29.84 208.06 29.82 207.8 29.81 207.54 29.8 204.54 27.96 201.54 26.11 198.53 24.27 193.64 20.26 188.74 16.26 183.84 12.25 180.21 9.88 176.57 7.5 172.94 5.13" fill="#CCCC00"/>
  <path d="M182.79 49.98C182.49 50.52 182.02 51.38 181.42 51.98 183.86 54.28 185.06 55.83 185.93 59.09 183.18 60.45 180.42 61.82 177.67 63.19 175.34 65.42 173 67.66 170.67 69.89 167.6 68.24 166.84 66.97 165.36 63.82 163.63 64.28 161.99 64.72 160.56 64.2 161.47 64.21 162.02 63.98 162.93 63.42 164.41 61.88 165.89 60.34 167.38 58.8 170 56.81 172.62 54.83 175.24 52.84 176.95 52.28 178.67 51.73 180.38 51.17 181.04 50.9 182.14 50.25 182.79 49.98" fill="#CCCC00"/>
  <path d="M190.4 58.2C181.63 62.92 173.24 67.66 168.76 76.63 168.76 65.25 180.18 60.24 190.4 58.2" fill="#CCCC00"/>
  <path d="M167.02 35.82C160.51 40.26 155.91 49.21 156.48 57.94 154.37 50.38 155.12 43.24 161.63 38.02 162.72 37.49 163.82 36.95 164.92 36.42 165.62 36.22 166.32 36.02 167.02 35.82" fill="#CCCC00"/>
  <path d="M254.61 56.42C253.42 48.98 251.47 41.76 248.75 36.56 248.42 35.93 247.92 35.28 247.3 34.67 245.95 33.34 243.95 32.08 241.89 31.37 239.7 30.62 237.4 30.46 235.57 31.42 235.09 31.67 234.65 31.99 234.26 32.39 233.07 33.59 232.07 35.05 231.07 36.51 229.96 38.14 228.84 39.77 227.5 40.92 225.95 42.25 224 43.05 222.17 43.79 221.37 41.84 220.44 40.07 219.4 38.4 218.14 36.4 216.72 34.53 215.15 32.66 213.86 31.13 212.62 29.98 211.27 28.95 209.91 27.92 208.53 27.05 206.91 26.04 202.58 23.33 198.9 20.1 195.14 16.8 193.43 15.3 191.71 13.79 190.02 12.4 181.07 5.02 172.72 1.44 163.8 0.88 154.93 0.32 145.57 2.76 134.51 7.41 129.18 9.66 125.21 12.31 121.76 15.5 118.46 18.55 115.67 22.06 112.59 26.16 110.8 26.29 109.21 26.56 107.59 27.21 105.81 27.92 104.01 29.07 101.86 30.97 100.33 32.32 98.87 33.68 97.46 35.04 96.14 36.32 94.85 37.62 93.59 38.94 83.52 40.55 75.32 42.34 67.98 45.18 60.47 48.09 53.85 52.1 47.05 58.12 44.27 60.59 41.87 63.19 39.76 65.95 37.69 68.66 35.92 71.5 34.37 74.51 33.01 76.01 31.65 77.53 30.17 78.86 28.74 80.15 27.2 81.25 25.49 81.91L25.49 81.91C24.49 82.29 24.07 82.52 24.03 82.5 23.98 82.47 23.95 82.33 23.88 82.05 26.35 79.69 26.74 76.24 26.96 72.8 27.26 73.16 27.54 73.59 27.84 74.05 28.16 74.55 28.5 75.07 28.9 75.57L30.57 77.69 31.16 75.05C31.66 72.84 32.03 69.9 31.45 67.35 31.08 65.7 30.31 64.22 28.97 63.18 29.1 62.84 29.22 62.53 29.34 62.23 29.76 61.16 30.19 60.05 30.56 59.01L31.29 56.95 29.13 57.32C26.25 57.82 20.08 61.21 15.73 65.73 14.11 67.4 12.72 69.26 11.81 71.2 10.86 73.22 10.44 75.34 10.81 77.46 11.13 79.31 12.05 81.13 13.74 82.84 14.04 84.08 14.33 85.15 14.63 86.12 14.98 87.22 15.35 88.21 15.82 89.18 17.08 91.81 19.1 93.42 21.44 94.17 23.31 94.77 25.39 94.8 27.42 94.35 27.03 96.66 26.78 99.06 26.68 101.69 26.55 105.12 26.68 108.92 27.05 113.32 27.14 114.29 27.26 115.35 27.42 116.51 27.56 117.5 27.73 118.46 27.91 119.42 27.53 120.46 27.14 121.5 26.76 122.54 26.17 124.15 25.58 125.77 24.99 127.38 23.68 128.67 22.38 129.96 21.08 131.25 19.86 132.45 18.64 133.66 17.43 134.87 17.33 134.97 16.91 135.36 16.54 135.72 14.08 138.09 13.59 138.56 14.29 142.74 14.72 145.29 15.56 147.89 16.87 150.39 18.08 152.69 19.71 154.93 21.79 157.02 24.39 159.63 28.65 162.87 33.11 164.56 35.66 165.53 38.29 166.01 40.76 165.61 40.63 165.99 40.51 166.37 40.37 166.75 39.98 167.82 39.55 168.9 39.07 169.95 36.05 176.58 39.15 180.05 43.99 182.25 46.4 183.35 49.27 184.1 51.94 184.8 52.49 184.94 53.03 185.08 53.72 185.27 56.88 186.12 62.34 187.69 67.33 188.01 72.77 188.35 77.68 187.23 79 182.34 79.52 180.4 79.82 178.92 79.95 177.47 80.06 176.12 80.02 174.76 79.86 173.07 81.41 169.63 82.07 168.66 83.2 167 83.43 166.68 83.7 166.28 83.78 166.16 84.99 164.36 85.56 163.08 85.77 161.64 85.97 160.25 85.8 158.86 85.55 156.74 85.52 156.54 85.49 156.25 85.44 155.86 88.62 156.27 91.76 156.49 94.89 156.51 96.47 156.52 98.06 156.47 99.64 156.39 99.24 156.59 98.84 156.8 98.41 157.02 98.22 157.12 98.02 157.22 97.82 157.33 93.61 159.49 93.44 163.58 94.75 167.79 95.94 171.59 98.38 175.47 99.91 177.83 103.14 182.79 106.21 187 109.93 189.28 113.84 191.67 118.3 191.95 124.06 188.84 126.99 187.25 127.91 185.63 129.16 183.45 129.54 182.79 129.96 182.06 130.43 181.35 131.64 180.55 134.65 178.06 137.61 175.62 138.61 174.79 139.62 173.96 140.76 173.03 141.54 173.61 142.48 174.01 143.62 174.28 145.1 174.63 146.87 174.79 148.98 174.94 150.57 175.06 155.73 175.06 159.06 175.06 160.09 175.06 160.95 175.06 161.46 175.06 164.9 175.08 167.68 174.9 169.78 173.71 172.02 172.44 173.35 170.19 173.64 166.16 173.77 164.37 173.79 163.27 173.54 162.14 173.31 161.09 172.85 160.13 172.08 158.73 172.03 156.99 171.98 155.25 171.94 153.5 171.89 151.66 171.84 149.81 171.79 147.96 171.73 145.78 171.49 144.01 171.05 142.27 170.61 140.54 169.98 138.88 169.15 136.88 168.58 135.53 168.12 134.29 167.67 133.08L166.46 133.52 166.65 133.45 167.67 133.08 167.67 133.07C166.95 131.13 166.24 129.24 165.24 127.22 165.31 126.83 165.37 126.41 165.44 125.96 166.08 126.58 166.72 127.19 167.36 127.81L170.19 130.54C172.34 132.61 174.32 134.51 176.64 135.87 179.03 137.29 181.73 138.11 185.22 137.94 188.87 137.77 192.78 136.23 196 133.86 199.11 131.56 201.61 128.46 202.66 125.03 202.96 124.03 203.26 123.04 203.56 122.05 203.8 121.26 204.04 120.47 204.28 119.67 209.41 120.54 214.91 120.82 220.22 120.27 225.34 119.73 230.3 118.42 234.57 116.15 240.85 112.8 245.55 107.86 248.93 102L248.94 102C252.72 95.45 254.83 87.74 255.64 79.8 256.28 73.43 255.93 64.77 254.61 56.42L254.61 56.42ZM188.22 109.94C185.27 108.95 183.21 107.5 180.62 105.86 181.32 109.05 181.65 112.41 180.71 115.59 179.21 120.63 176.8 128.88 183.65 130.4 186.25 130.98 187.43 130.9 191.11 129 188.14 129.67 186.63 129.51 184.59 129.13 182.74 128.79 181.75 127.61 181.23 126.22 181.88 126.69 182.94 126.94 184.74 127.38 189.82 128.6 194.65 126.16 195.6 122.64 196.15 120.58 196.06 119.5 197.22 116.7 198.27 117.03 199.36 117.32 200.47 117.59 199.85 119.64 199.22 121.69 198.59 123.74 196.96 129.06 190.6 133.35 184.99 133.25 179.81 133.16 176.52 129.91 172.94 126.73 170.47 124.53 168.1 122.43 165.74 120.35 159.29 118.31 154.12 115.93 148.13 111.5 152.39 116.51 155.28 119.28 161.23 121.78 160.36 130.6 157.3 137.03 154.68 145.47 153.5 149.28 144.16 164.58 141.57 166.07 139.73 167.13 128.17 176.87 126 178.15 124.38 180.3 122.96 183.28 120.52 184.56 113.1 188.48 108.34 180.97 104.35 174.63 102.53 171.74 97.48 163.42 101.88 161.08 106.04 158.88 108.37 157.31 112.62 154.52 113.24 155.66 114.31 156.75 115.01 157.89 114.85 156.65 114.7 155.41 114.54 154.16 114.26 151.91 114.27 150.09 114.45 147.82 114.63 145.63 114.8 143.44 114.97 141.25 114.33 143.47 113.06 145.7 112.42 147.93 112.16 148.82 111.95 149.54 111.83 150.21 102.31 152.15 92.85 152.28 83.33 150.58 82.72 147.05 81.98 143.37 81.36 140.74 81.17 143.69 81.29 151.85 81.27 156.42 81.26 159.95 81.11 161.17 79.29 164.18 77.58 166.99 76.86 167.63 74.47 172.4 74.66 175.4 74.67 177.39 73.87 180.24 72.54 184.98 59.15 181.31 55.62 180.34 51.27 179.15 42.27 177.38 44.54 171.58 46.53 166.47 47.79 161.09 48.76 153.95 40.79 142.47 33.38 126.73 31.95 112.79 30.85 101.96 31.51 95.3 33.85 88.68 37.57 78.19 42.76 69.11 51.09 61.79 62.33 51.93 72.84 47.97 89.29 45.47 85.33 49.89 81.42 54.58 77.15 59.6 72.83 64.68 70.27 69.82 67.53 75.38 63.74 83.05 63.82 85.98 68.84 92.72 73.17 98.53 75.5 101.14 77.39 106.83 75.83 110.05 75.27 112.76 74.74 117.16 80.04 122.95 83.98 126.92 89.12 128.14 94.17 129.34 98.38 129.11 102.9 126.8 112.92 121.67 122.2 115.05 133.51 114.78 138.75 101.91 138.22 91.16 135.71 78.72 133.99 70.22 133.3 62.17 132.77 53.5 130.65 62.43 130.25 70.27 131.82 79.16 133.72 89.88 135.19 101.72 129.92 111.13 119.69 111.91 110.92 118.14 101.7 122.91 98 124.83 94.14 125.02 90.04 123.89 86.23 122.85 83.66 120.33 79.56 115.6 79.5 110.85 80.57 108.66 82.75 104.36 86.26 97.45 90.12 91.02 94.37 84.22 89.17 90.5 84.25 95.74 80.16 102.04 78.59 97.59 76.36 95.33 72.65 90.31 69.04 85.41 68.66 83.27 71.36 77.6 74.08 71.9 76.39 66.89 81.02 61.9 89.01 53.26 96.34 43.65 105.09 35.14 109.84 30.52 111.76 30.68 118.06 29.73 123.76 28.87 129.31 27.78 135.12 26.43 129.51 26.95 124.08 27.14 118.61 27.28 118.55 27.28 118.5 27.28 118.44 27.28 123.82 20.41 126.94 16.59 135.68 12.79 157.18 3.45 170.85 2.44 187.75 16.64 192.12 20.32 195.95 23.9 200.39 27.07 198.78 27.21 197.39 27.5 195.56 28.22 197.79 27.79 200.37 28.21 202.69 28.64 203.34 29.06 204.01 29.47 204.69 29.88 207.82 31.72 209.6 32.74 211.72 35.7 213.96 38.82 215.83 41.94 217.48 45.37 216.4 44.99 215.49 44.66 214.69 44.42 214.09 44.15 213.45 43.97 212.76 43.9 211.41 43.77 210.11 44.11 209.03 44.77 208.99 44.79 208.94 44.81 208.9 44.83 207.17 45.68 204.48 46.64 202.68 46.93 203.6 47.25 205.63 47.37 206.58 46.99 206.71 46.94 206.84 46.9 206.98 46.87 206.54 47.6 206.26 48.43 206.18 49.34 206.06 50.53 206.3 51.68 206.82 52.67 206.82 52.67 206.82 52.68 206.82 52.68 206.98 53.06 207.21 53.41 207.46 53.67 206.64 53.97 205.8 54.32 204.93 54.69 208.94 54.08 212.56 53.98 216.47 54.49 216.73 55.73 216.99 57.03 217.23 58.36 216.74 58.4 216.26 58.44 215.77 58.47 215.74 58.48 215.69 58.48 215.66 58.49 213.8 57.01 211.74 57.25 208.93 57.9 200.36 59.85 202.37 64.66 198.43 71.9 202.52 66.9 202.22 61.67 208.89 60.09 210.44 59.72 211.5 59.26 212.55 59.42 210.66 60.37 209.02 61.95 208.37 63.78 206.54 68.95 207.68 73.3 205.67 78.13 208.16 73.82 208.31 69.6 210.54 65.06 211.34 63.43 214.3 60.82 216.13 60.78 216.63 60.77 217.13 60.76 217.63 60.75 218.07 63.62 218.33 66.47 218.16 68.84 217.85 73.16 216.73 79.57 216.06 82.02 218.32 79.12 219.34 72.98 220.33 68.65 221.37 64.15 221.11 58.74 220.2 53.91 218.96 47.27 225.8 48.35 229.77 45.22 232.68 42.92 234.69 39.25 237.37 36.65 240.02 34.07 244.2 37.86 245.24 40.38 249.76 51.33 251.82 68.55 250.63 79.58 249.29 91.97 243.31 105.48 232.39 111.58 218.46 119.35 202.05 114.6 188.22 109.94L188.22 109.94ZM168.44 164.94C167.98 170.04 166.28 170.38 161.79 170.3 159.75 170.27 151.64 170.23 149.58 170.05 146.67 169.8 145.04 169.54 144.15 168.88 148.72 165.52 156.49 151.67 158 146.9 159.6 141.86 161.36 137.46 162.66 132.8 163.26 134.75 163.73 136.68 164.61 138.74 166.06 142.2 166.78 144.34 166.88 148.04 166.99 151.95 167.1 155.86 167.21 159.77 168.46 161.97 168.66 162.44 168.44 164.94L168.44 164.94ZM30.84 126.23C33.75 136.28 38.69 146.15 44.18 154.44 44.18 154.49 44.17 154.54 44.17 154.59 43.83 156.01 43.43 157.4 42.6 158.52 38.68 163.76 28.71 156.07 25.83 153.12 22.67 149.9 20.56 146.09 20.06 142.51 19.69 139.9 20.05 139.84 21.87 137.99 24.32 135.51 26.78 133.02 29.23 130.54 29.77 129.1 30.3 127.67 30.84 126.23L30.84 126.23ZM25.3 63.07C24.55 64.67 24.03 65.88 23.67 67.13 22.1 72.53 24.37 77.34 19.47 81.26 21.78 85.9 21.67 87.76 27.03 85.61 29.09 84.78 30.8 83.62 32.32 82.25 31.59 84.12 30.92 86.05 30.29 88.05 30.18 88.38 30.08 88.72 29.98 89.05 26.15 90.67 21.11 91.7 19.19 87.68 18.25 85.72 17.72 83.8 17.04 81.34 10.73 74.8 20.16 66.17 25.3 63.07L25.3 63.07ZM28.4 70C27.62 69.22 27 68.69 25.99 68.81 26.08 68.14 26.19 67.51 26.35 66.91 26.43 66.6 26.51 66.3 26.61 66 27.91 66.76 28.26 68.14 28.4 70L28.4 70ZM217.58 45.58C217.82 46.09 218.05 46.6 218.28 47.11 218.09 47.25 217.91 47.4 217.74 47.56 217.43 46.83 216.98 46.17 216.42 45.62 216.79 45.6 217.18 45.59 217.58 45.58L217.58 45.58ZM35.43 75.25L35.43 75.25 35.43 75.25 35.43 75.25ZM14.9 82.19L14.9 82.19 14.9 82.19 14.9 82.19ZM83.93 154.36L83.93 154.36 83.93 154.36 83.93 154.36ZM140.8 171.34L140.8 171.34 140.79 171.34 140.8 171.34 140.8 171.34ZM163.91 127.41L163.91 127.41 163.91 127.41 163.91 127.41 163.91 127.41ZM25.95 83.11L25.95 83.11 25.95 83.11 25.91 83 25.95 83.11 25.95 83.11ZM247.8 101.35L247.8 101.35 247.83 101.37 247.8 101.35 247.8 101.35Z" fill="#000000"/>
  <path d="M3.69 81.54C4.69 70.17 6.9 65.26 14.98 56.71 4.85 63.85 2.32 67.09 3.69 81.54" fill="#000000"/>
  <path d="M1.07 72.25C2.19 67.14 3.23 65.21 6.38 61.01 1.27 64.58 0.6 66.05 1.07 72.25" fill="#000000"/>
  <path d="M119.92 0.93C113.86 2.4 112.7 3.52 110.88 9.47 113.78 5.11 115.46 3.69 119.92 0.93" fill="#000000"/>
  <path d="M129.5 0.07C117.46 3.02 113.92 5.12 109.92 19.07 115 8.85 118.85 5.09 129.5 0.07" fill="#000000"/>
  <path d="M155.42 50.92C156.7 45.24 158.98 39.76 167.81 35.53 156.11 38.46 153.91 43.37 155.42 50.92" fill="#000000"/>
  <path d="M229.87 51.32C236.8 48.85 240.14 43.28 241.8 36.72 239.08 42.22 234.9 46.81 229.21 49.62 226.16 51.13 224.21 50.61 220.81 50.28 224.27 51.28 226.47 52.53 229.87 51.32" fill="#000000"/>
  <path d="M182.67 56.89C181.74 54.95 180.12 53.56 178.25 52.88 179.95 51.97 181.62 51.02 182.92 49.83 179.11 51.6 174.67 51.17 171.39 53.38 168.51 55.33 164.53 61.5 161.6 64.12 163.72 63.29 165.77 61.87 167.65 60.37 167.66 61.48 167.9 62.61 168.41 63.68 169.18 65.28 170.41 66.5 171.87 67.27 170.82 68.66 169.94 70.21 169.31 71.94 174.89 65.33 182.98 60.33 190.59 58.2 188.46 58.17 185.95 58.57 183.38 59.41 183.29 58.56 183.05 57.7 182.67 56.89" fill="#000000"/>
  <path d="M174.64 106.85C174.37 108.56 174 110.69 173.72 112.4 174.45 110.46 175.32 108.21 176.16 106.36 177.06 104.41 177.56 104.22 179.46 103.19 180.8 102.46 183.25 101.45 184.59 100.72 183.21 100.95 180.73 101.46 179.34 101.7 175.65 102.32 175.21 103.21 174.64 106.85" fill="#000000"/>
  <path d="M111.5 40.75C107.21 44.99 103.04 59.54 101.71 65.36 103.81 60.52 109.06 46.99 113.08 43.55 114.19 42.6 114.97 42.02 115.81 41.59 112.92 46.43 113.14 47.63 114.15 54.1 115.01 47.52 117.28 44.98 121.02 40.07 125.11 39.04 128.94 37.81 133.14 36.17 128.41 36.71 123.68 37.2 118.94 37.64 114.96 38.02 114.32 37.96 111.5 40.75" fill="#000000"/>
  <path d="M169.94 65.51C169.16 63.88 169.86 61.91 171.5 61.13 173.14 60.35 175.11 61.04 175.89 62.68 175.97 62.84 176.03 63 176.07 63.16 174.51 64.32 173.07 65.69 171.87 67.27 171.06 66.95 170.34 66.35 169.94 65.51" fill="#FFFFCC"/>
  <path d="M206.57 51.34C206.7 49.99 207.86 48.99 209.21 49.12 210.57 49.25 211.57 50.46 211.44 51.82 211.41 52.1 211.33 52.37 211.22 52.62 209.98 52.84 208.74 53.2 207.46 53.67 206.92 53.12 206.5 52.12 206.57 51.34" fill="#FFFFCC"/>
</svg>
