<svg version="1.1" id="Layer_1" xmlns="http://www.w3.org/2000/svg" xmlns:xlink="http://www.w3.org/1999/xlink" x="0" y="0" width="512" height="512" viewBox="0 0 512 512" enable-background="new 0 0 512 512" xml:space="preserve">
  <path d="M108.38 0h23.08v22.8h21.11V0h23.08v69.04H152.57v-23.12h-21.11v23.12h-23.08L108.38 0 108.38 0z"/>
  <path d="M205.99 22.9h-20.32V0h63.72v22.9h-20.32v46.15h-23.08L205.99 22.9 205.99 22.9z"/>
  <path d="M259.51 0h24.06l14.8 24.26L313.16 0h24.07v69.04h-22.98V34.82l-15.88 24.55h-0.4l-15.89-24.55v34.22h-22.58V0z"/>
  <path d="M348.72 0h23.08v46.22h32.45v22.82H348.72V0z"/>
  <g id="Guides_to_delete">
    <polygon fill="#E34E26" points="107.13 470.73 74.01 99.3 437.7 99.3 404.55 470.76 255.77 512 "/>
    <polygon fill="#EF662A" points="255.86 129.66 255.86 480.45 376.16 447.1 404.51 129.66 "/>
    <polygon fill="#FFFFFF" points="141.76 175.22 154.04 312.98 311.94 312.98 306.64 372.07 255.8 385.81 205.06 372.09 201.66 334.15 155.94 334.15 162.48 407.28 255.79 433.2 349.22 407.28 361.74 267.43 195.71 267.43 191.54 220.78 365.73 220.78 365.87 220.78 369.95 175.22 "/>
    <polygon fill="#EBEBEB" points="255.86 175.22 141.76 175.22 154.04 312.98 255.86 312.98 255.86 267.43 195.71 267.43 191.54 220.78 255.86 220.78 "/>
    <polygon fill="#EBEBEB" points="255.86 385.79 255.8 385.81 205.06 372.09 201.66 334.15 155.94 334.15 162.48 407.28 255.79 433.2 255.86 433.18 "/>
  </g>
</svg>
