<svg xmlns="http://www.w3.org/2000/svg" xmlns:xlink="http://www.w3.org/1999/xlink" version="1.1" id="Layer_1" x="0" y="0" viewBox="0 0 305 305" xml:space="preserve" width="512" height="512" enable-background="new 0 0 305 305">
  <g id="XMLID_228_">
    <path id="XMLID_229_" d="M40.74 112.12c-25.78 44.75-9.39 112.65 19.12 153.82C74.09 286.52 88.5 305 108.24 305c0.37 0 0.75-0.01 1.13-0.02 9.27-0.37 15.97-3.22 22.45-5.98 7.27-3.1 14.8-6.3 26.6-6.3 11.23 0 18.39 3.1 25.32 6.1 6.83 2.95 13.86 6.01 24.25 5.82 22.23-0.41 35.88-20.35 47.93-37.94 12.57-18.36 18.87-36.2 21-43.01l0.09-0.27c0.41-1.21-0.17-2.53-1.33-3.07 -0.03-0.01-0.15-0.06-0.18-0.08 -3.91-1.6-38.26-16.84-38.62-58.36 -0.33-33.74 25.76-51.6 31-54.84l0.24-0.15c0.57-0.36 0.96-0.94 1.1-1.61 0.13-0.66-0.01-1.35-0.39-1.9 -18.01-26.36-45.62-30.33-56.74-30.81 -1.61-0.16-3.28-0.24-4.95-0.24 -13.06 0-25.56 4.93-35.61 8.89 -6.94 2.74-12.93 5.1-17.06 5.1 -4.64 0-10.67-2.39-17.64-5.16 -9.33-3.7-19.9-7.9-31.1-7.9 -0.27 0-0.53 0-0.79 0.01C78.89 73.64 54.3 88.54 40.74 112.12z" fill="#5a5a5c"/>
    <path id="XMLID_230_" d="M212.1 0c-15.76 0.64-34.67 10.35-45.97 23.58 -9.6 11.13-18.99 29.68-16.52 48.38 0.16 1.17 1.11 2.07 2.28 2.16 1.06 0.08 2.15 0.13 3.23 0.13 15.41 0 32.04-8.53 43.4-22.26 11.95-14.5 17.99-33.1 16.17-49.77C214.54 0.92 213.4-0.05 212.1 0z" fill="#5a5a5c"/>
  </g>
</svg>
