<svg xmlns="http://www.w3.org/2000/svg" xmlns:xlink="http://www.w3.org/1999/xlink" version="1.1" id="Layer_1" x="0" y="0" viewBox="0 0 305 305" xml:space="preserve" width="512" height="512" enable-background="new 0 0 305.001 305.001">
  <g id="XMLID_7_">
    <path id="XMLID_8_" d="M150.99 56.51c-14.09 9.91-30.07 21.15-38.62 39.73 -14.86 32.43 30.42 67.8 32.35 69.29 0.45 0.35 0.99 0.52 1.53 0.52 0.57 0 1.14-0.19 1.61-0.58 0.9-0.75 1.15-2.03 0.61-3.07 -0.16-0.32-16.42-31.89-15.81-54.54 0.21-7.89 11.25-16.84 22.94-26.31 10.71-8.68 22.84-18.51 29.94-30.02 15.59-25.33-1.74-50.23-1.91-50.48 -0.69-0.97-1.96-1.32-3.04-0.84 -1.08 0.48-1.69 1.65-1.44 2.81 0.04 0.16 3.4 16.63-5.97 33.6C169.3 43.63 160.82 49.6 150.99 56.51z" fill="#07639d"/>
    <path id="XMLID_9_" d="M210.37 67.68c0.99-0.75 1.29-2.12 0.68-3.2 -0.6-1.09-1.91-1.57-3.08-1.13 -2.39 0.91-58.63 22.59-58.63 48.78 0 18.05 7.71 27.59 13.34 34.56 2.21 2.73 4.12 5.09 4.74 7.1 1.77 5.8-2.42 16.29-4.18 19.85 -0.51 1.02-0.26 2.26 0.61 3.01 0.47 0.4 1.05 0.61 1.63 0.61 0.5 0 1-0.15 1.43-0.45 0.97-0.67 23.63-16.7 19.57-36 -1.51-7.34-5.12-12.7-8.3-17.43 -4.93-7.33-8.49-12.62-3.09-22.4C181.42 89.56 210.08 67.9 210.37 67.68z" fill="#07639d"/>
    <path id="XMLID_10_" d="M63.99 177.66c-0.96 2.89-0.51 5.75 1.32 8.28 6.1 8.46 27.69 13.12 60.8 13.12 0 0 0 0 0 0 4.49 0 9.22-0.09 14.08-0.26 52.94-1.9 72.58-18.39 73.39-19.09 0.88-0.76 1.12-2.04 0.57-3.07 -0.55-1.03-1.73-1.55-2.86-1.24 -18.64 5.09-53.46 6.9-77.61 6.9 -27.02 0-40.78-1.95-44.15-3.38 1.73-2.37 12.39-6.61 25.61-9.21 1.26-0.25 2.13-1.41 2.01-2.69 -0.12-1.28-1.2-2.26-2.49-2.26C106.89 164.76 68.05 165.38 63.99 177.66z" fill="#07639d"/>
    <path id="XMLID_11_" d="M241.15 160.67c-10.92 0-21.27 5.47-21.71 5.71 -1.01 0.54-1.52 1.7-1.25 2.81 0.28 1.11 1.28 1.89 2.42 1.89 0.23 0 23.29 0.19 25.38 13.37 1.85 11.37-21.82 29.79-31.1 35.92 -1 0.66-1.39 1.95-0.93 3.05 0.4 0.94 1.31 1.53 2.3 1.53 0.17 0 0.35-0.02 0.52-0.06 2.2-0.47 53.86-11.85 48.39-41.93C261.86 164.54 250.28 160.67 241.15 160.67z" fill="#07639d"/>
    <path id="XMLID_12_" d="M205.73 216.69c0.18-0.96-0.22-1.94-1.02-2.51l-12.38-8.68c-0.6-0.42-1.37-0.56-2.08-0.37 -0.13 0.03-13.08 3.44-31.88 5.53 -7.46 0.84-15.82 1.28-24.17 1.28 -18.8 0-31.09-2.21-32.88-3.83 -0.24-0.45-0.16-0.66-0.12-0.78 0.33-0.9 2.07-1.98 3.19-2.4 1.24-0.46 1.91-1.81 1.52-3.07 -0.38-1.27-1.69-2.01-2.98-1.7 -12.42 3-18.5 7.19-18.06 12.46 0.79 9.34 22.43 14.14 40.73 15.41 2.63 0.18 5.48 0.27 8.46 0.27 0 0 0 0 0.01 0 30.43 0 69.43-9.55 69.82-9.64C204.82 218.42 205.54 217.65 205.73 216.69z" fill="#07639d"/>
    <path id="XMLID_13_" d="M112.35 236.75c0.94-0.61 1.35-1.77 1.02-2.84 -0.33-1.07-1.33-1.77-2.45-1.75 -1.66 0.04-16.29 0.7-17.32 10.02 -0.31 2.78 0.49 5.33 2.37 7.56 5.25 6.22 19.43 9.92 43.33 11.31 2.83 0.17 5.7 0.25 8.54 0.25 30.39 0 50.86-9.51 51.71-9.92 0.83-0.39 1.38-1.21 1.43-2.13 0.05-0.92-0.41-1.79-1.19-2.27l-15.65-9.55c-0.54-0.33-1.19-0.44-1.81-0.31 -0.1 0.02-10.04 2.08-25.03 4.12 -2.84 0.39-6.39 0.58-10.56 0.58 -14.98 0-31.65-2.45-34.84-4.05C111.84 237.46 111.9 237.08 112.35 236.75z" fill="#07639d"/>
    <path id="XMLID_14_" d="M133.68 290.02c69.61-0.06 106.97-12.44 114.17-20.23 2.55-2.76 2.82-5.37 2.61-7.07 -0.53-4.19-4.35-6.76-4.79-7.04 -1.04-0.67-2.45-0.5-3.26 0.44 -0.81 0.94-0.83 2.31-0.02 3.25 0.44 0.56 0.69 1.51-0.59 2.8 -2.88 2.69-31.9 10.84-80.21 13.29 -6.62 0.35-13.56 0.52-20.63 0.52 -43.26 0-74.92-5.92-79.08-9.38 1.6-2.3 12.8-5.98 24.71-8.06 1.34-0.23 2.25-1.5 2.04-2.84 -0.21-1.35-1.45-2.27-2.8-2.1 -0.34 0.05-1.47 0.12-2.8 0.2 -19.65 1.2-42.36 3.88-43.54 14 -0.36 3.09 0.56 5.89 2.73 8.32 5.31 5.96 20.56 13.89 91.48 13.89C133.68 290.02 133.68 290.02 133.68 290.02z" fill="#07639d"/>
    <path id="XMLID_15_" d="M261.52 271.99c-0.98-0.45-2.15-0.22-2.88 0.57 -0.1 0.11-10.57 11.05-42.03 17.48 -12.05 2.41-34.66 3.64-67.21 3.64 -32.61 0-63.64-1.28-63.95-1.3 -1.3-0.06-2.4 0.88-2.58 2.15 -0.18 1.28 0.65 2.48 1.9 2.78 0.32 0.08 32.84 7.7 77.31 7.7 21.33 0 42.08-1.73 61.68-5.15 36.55-6.41 39.11-24.53 39.2-25.3C263.08 273.47 262.5 272.44 261.52 271.99z" fill="#07639d"/>
  </g>
</svg>
