<svg width="512" height="116" viewBox="0 0 512 116" version="1.1" xmlns="http://www.w3.org/2000/svg" xmlns:xlink="http://www.w3.org/1999/xlink">
  <g stroke="none" stroke-width="1" fill="none" fill-rule="evenodd">
    <path d="M489.72 8.65L511.14 8.76C511.14 8.76 471.31 62.73 468.06 67.13 467.01 68.55 465.4 70.09 464.59 71.99 462.53 76.78 460.42 87.28 460.42 87.28L440.82 87.37C440.82 87.37 443.87 76.43 443.74 70.6 443.63 65.51 441.03 60.42 439.58 55.31 438.1 50.15 436.1 40.03 436.1 40.03L456.25 40.03 459.03 51.15 489.72 8.65" fill="#1A1918"/>
    <path d="M449.16 20.03C453.11 22.41 455.54 35.56 455.54 35.56 455.54 35.56 434.85 35.86 423.6 35.86L413.87 35.86 402.06 87.28 383.99 87.28C383.99 87.28 395.23 31.4 397.89 21.27 398.75 17.99 403.78 18.55 412.28 18.55L425.85 18.55C434.61 18.55 444.85 17.44 449.16 20.03" fill="#1A1918"/>
    <path d="M365.06 45.07C365.06 45.07 365.62 41.77 363.15 37.94 361.04 34.69 359.09 33.93 353.53 33.76 337.83 33.26 338.14 44.89 338.14 44.89L365.06 45.07 365.06 45.07ZM382.08 31.75C384.38 40.04 380 59.54 380 59.54 380 59.54 357.1 59.16 344.56 59.54 340.67 59.66 336 59.12 334.84 60.93 333.2 63.47 335.43 67.38 337.32 69.04 339.5 70.94 343.74 71.16 345.26 71.35 355.44 72.64 376.74 71.68 376.74 71.68L373.05 88.02C373.05 88.02 342.95 89.53 327.89 85.94 324.92 85.23 322.13 83.8 320.25 81.77 319.73 81.22 319.29 80.46 318.8 79.81 318.41 79.28 317.28 77.57 316.77 76.21 313.33 67.05 317.18 49.49 320.94 40.09 321.38 38.99 321.93 37.61 322.51 36.44 323.23 34.97 323.84 33.32 324.41 32.44 324.8 31.84 325.28 31.45 325.69 30.88 326.15 30.21 326.69 29.55 327.19 28.97 328.58 27.36 330.16 26.22 332.06 24.8 338.33 20.1 349.68 16.46 363.32 17.85 368.46 18.38 376.21 20.21 380 25.5 381.01 26.91 381.51 29.7 382.08 31.75L382.08 31.75 382.08 31.75Z" fill="#1A1918"/>
    <path d="M299.23 18.49L316.74 18.39C316.74 18.39 306.98 64.69 302.01 87.28L281.86 87.28C267.78 87.28 255.23 89.02 249.9 78.94 244.72 69.15 249.66 53.05 251.98 42.11 253.62 34.37 257.08 18.55 257.08 18.55L275.22 18.39C275.22 18.39 270.1 43.02 267.96 55.31 267.2 59.72 265.62 63.87 267.27 67.13 268.83 70.23 271.02 70.45 277.69 70.6 279.8 70.65 286.72 70.6 286.72 70.6L299.23 18.49" fill="#1A1918"/>
    <path d="M217.24 51.84C219.08 45.32 221.75 38.26 221.41 32.39 221.04 26.11 215.78 20.39 212.38 19.19 202.15 15.57 192.57 20.62 188.76 24.74 183.83 30.08 182.16 36.31 180.42 44.89 179.12 51.26 178.06 57.99 180.42 62.96 184.6 71.74 197.64 69.82 211.69 69.91 213.77 64.32 215.49 58.05 217.24 51.84L217.24 51.84 217.24 51.84ZM241.56 26.13C243.56 40.68 235.89 56.74 230.6 70.7 235.99 71.19 240.71 70.63 241.05 71.03 241.41 71.55 237.44 87.7 236.06 87.74 231.78 87.85 217.6 87.97 211.69 87.97 192.39 87.97 174.34 89.23 165.14 79.63 161.4 75.73 158.81 69.05 158.19 64.35 157.14 56.5 158.45 47.85 160.27 40.72 161.92 34.29 164.03 28.22 167.22 22.66 175.33 8.51 189.43-2 213.08 0.43 217.66 0.9 224.25 2.91 228.36 5.29 228.65 5.46 229.64 6.25 229.87 6.39 235.43 9.93 240.49 18.37 241.56 26.13L241.56 26.13 241.56 26.13Z" fill="#1A1918"/>
    <path d="M156.19 18.57C155.03 23.89 153.86 29.91 152.63 35.17L133.17 35.17C134.68 29.34 135.84 23.56 137.34 18.49 143.57 18.49 149.36 18.57 156.19 18.57" fill="#1A1918"/>
    <path d="M132.48 40.03L151.24 40.03C148.79 53.61 143.93 75.51 140.12 90.75 137.74 100.29 136.15 107.25 129.7 112.29 129.12 112.74 128.79 112.52 128.31 112.98 127.12 114.12 121.63 115.43 118.58 115.76 113.64 116.3 108.04 115.83 101.97 115.71 103.56 109.89 105.36 102.91 106.77 97.7 121.59 99.49 121.97 85.48 124.84 71.99 126.5 64.19 131.53 43.16 132.48 40.03" fill="#1A1918"/>
    <g transform="translate(0.000000, 8.827586)" fill="#21609B">
      <path d="M88.71 66.64L88.31 67.68C81.46 81.02 69.32 89.2 52 89.56 43.91 89.73 36.2 87.65 31.16 85.4 20.29 80.51 11.14 71.45 6.15 61.77 -1.02 47.9-2.31 28.6 12.59 14.18 12.82 14.18 10.78 17.31 11.01 17.31L10.6 18.64C-0.13 52.25 32.94 81.05 65.09 77.75 72.81 76.96 82.66 72.73 88.71 66.64"/>
      <path d="M69.25 52.74C77.34 52.8 85.79 49.02 90.79 43.71 86.42 54.82 73.74 61.96 56.75 59.69 42.52 57.78 28.96 43.47 27.57 29.12 26.55 18.68 30.19 12.44 36.18 4.88 34.1 8.84 33.32 11.89 33.13 13.83 30.85 36.42 51.17 52.62 69.25 52.74"/>
      <path d="M89.98 24.68C88.72 27.57 81.48 33.02 78.29 33.7 65.63 36.39 57.52 30.39 53.27 23.56 52.64 22.54 51.48 19.75 51.27 19.04 49.62 13.44 50.38 4.97 55.29 0.59 53.81 4.76 53.59 9.6 54.37 12.75 54.84 14.65 56.28 17.97 57.72 20.06 60.34 23.87 62 24.8 65.36 26.82 66.88 27.73 68.5 28.46 69.21 28.66 72.4 29.6 79.13 32.07 89.98 24.68"/>
    </g>
  </g>
</svg>
