<?xml version="1.0" encoding="utf-8"?>
<!-- Generator: Adobe Illustrator 17.0.0, SVG Export Plug-In . SVG Version: 6.00 Build 0)  -->
<!DOCTYPE svg PUBLIC "-//W3C//DTD SVG 1.1//EN" "http://www.w3.org/Graphics/SVG/1.1/DTD/svg11.dtd">
<svg version="1.1" id="Layer_1" xmlns="http://www.w3.org/2000/svg" xmlns:xlink="http://www.w3.org/1999/xlink" x="0px" y="0px"
	 width="339px" height="337.026px" viewBox="0 0 339 337.026" enable-background="new 0 0 339 337.026" xml:space="preserve">
<g>
	<path fill="#4B5E66" d="M766.25,327.689H642.164c-7.785,0-14.095-6.31-14.095-14.095V65.784c0-7.785,6.31-14.095,14.095-14.095
		h124.091c7.78,0,14.09,6.31,14.09,14.095v247.815C780.345,321.379,774.035,327.689,766.25,327.689z"/>
	<rect x="628.069" y="80.241" fill="#2D1930" width="152.276" height="209.379"/>
	<g>
		<path fill="#273035" d="M723.241,61.206h-23.793c-2.627,0-4.759,2.127-4.759,4.759c0,2.632,2.132,4.759,4.759,4.759h23.793
			c2.627,0,4.759-2.127,4.759-4.759C728,63.333,725.868,61.206,723.241,61.206z"/>
		<path fill="#273035" d="M685.172,61.206h-4.759c-2.627,0-4.759,2.127-4.759,4.759c0,2.632,2.132,4.759,4.759,4.759h4.759
			c2.627,0,4.759-2.127,4.759-4.759C689.931,63.333,687.799,61.206,685.172,61.206z"/>
	</g>
	
		<line fill="none" stroke="#CBD4D8" stroke-width="2" stroke-linecap="round" stroke-miterlimit="10" x1="623.31" y1="94.517" x2="623.31" y2="99.275"/>
	
		<line fill="none" stroke="#CBD4D8" stroke-width="2" stroke-linecap="round" stroke-miterlimit="10" x1="623.31" y1="113.551" x2="623.31" y2="118.31"/>
	
		<line fill="none" stroke="#CBD4D8" stroke-width="2" stroke-linecap="round" stroke-miterlimit="10" x1="623.31" y1="132.586" x2="623.31" y2="137.344"/>
	<circle fill="#273035" cx="704.207" cy="308.655" r="14.276"/>
	<path fill="#DD352E" d="M755.833,270.586h-17.597c-0.395,0-0.719-0.324-0.719-0.719V252.27c0-0.395,0.324-0.719,0.719-0.719h17.597
		c0.395,0,0.719,0.324,0.719,0.719v17.597C756.552,270.262,756.228,270.586,755.833,270.586z"/>
	<path fill="#3083C9" d="M713.006,270.586h-17.597c-0.395,0-0.719-0.324-0.719-0.719V252.27c0-0.395,0.324-0.719,0.719-0.719h17.597
		c0.395,0,0.719,0.324,0.719,0.719v17.597C713.724,270.262,713.401,270.586,713.006,270.586z"/>
	<path fill="#A4E869" d="M670.178,270.586h-17.597c-0.395,0-0.719-0.324-0.719-0.719V252.27c0-0.395,0.324-0.719,0.719-0.719h17.597
		c0.395,0,0.719,0.324,0.719,0.719v17.597C670.897,270.262,670.573,270.586,670.178,270.586z"/>
</g>
<g>
	<g>
		<path fill="#CC2030" d="M278.257,131.313c0,3.878-10.192,7.123-10.633,10.887c-0.449,3.84,8.708,9.356,7.826,13.053
			c-0.895,3.75-11.563,4.536-12.877,8.113c-1.326,3.61,6.296,11.108,4.57,14.516c-1.734,3.424-12.295,1.724-14.404,4.916
			c-2.113,3.197,3.597,12.239,1.136,15.176c-2.458,2.933-12.365-1.101-15.142,1.546c-2.767,2.637,0.791,12.724-2.265,15.05
			c-3.039,2.312-11.814-3.802-15.111-1.823c-3.27,1.962-2,12.584-5.498,14.193c-3.461,1.591-10.696-6.284-14.354-5.064
			c-3.607,1.203-4.664,11.849-8.439,12.666c-3.71,0.804-9.081-8.443-12.929-8.035c-3.768,0.4-7.068,10.577-10.945,10.577
			c-3.877,0-7.177-10.177-10.945-10.577c-3.848-0.409-9.22,8.838-12.93,8.035c-3.775-0.818-4.832-11.464-8.44-12.667
			c-3.658-1.22-10.894,6.655-14.354,5.064c-3.498-1.608-2.228-12.23-5.498-14.193c-3.297-1.979-12.073,4.135-15.111,1.823
			c-3.057-2.326,0.502-12.413-2.265-15.05c-2.778-2.647-12.684,1.387-15.142-1.547c-2.461-2.937,3.249-11.979,1.136-15.176
			c-2.109-3.192-12.67-1.492-14.404-4.916c-1.725-3.407,5.896-10.905,4.57-14.515c-1.314-3.577-11.981-4.362-12.876-8.112
			c-0.882-3.697,8.275-9.213,7.826-13.053c-0.44-3.764-10.633-7.009-10.633-10.887c0-3.878,10.192-7.123,10.633-10.887
			c0.449-3.84-8.708-9.356-7.826-13.053c0.895-3.75,11.563-4.536,12.877-8.113c1.326-3.61-6.295-11.108-4.57-14.516
			c1.734-3.424,12.295-1.724,14.404-4.916c2.113-3.197-3.597-12.239-1.136-15.176c2.458-2.933,12.365,1.101,15.142-1.546
			c2.767-2.637-0.791-12.724,2.265-15.05c3.039-2.312,11.814,3.802,15.111,1.823c3.27-1.962,2-12.584,5.498-14.193
			c3.461-1.591,10.696,6.284,14.354,5.064c3.607-1.203,4.664-11.849,8.439-12.666c3.71-0.804,9.081,8.443,12.929,8.035
			c3.768-0.4,7.068-10.578,10.945-10.578c3.877,0,7.177,10.177,10.945,10.577c3.848,0.409,9.22-8.838,12.93-8.035
			c3.775,0.818,4.832,11.464,8.44,12.667c3.658,1.22,10.894-6.655,14.354-5.064c3.498,1.608,2.228,12.23,5.498,14.193
			c3.297,1.979,12.073-4.135,15.111-1.823c3.057,2.326-0.502,12.413,2.265,15.05c2.778,2.647,12.684-1.387,15.142,1.547
			c2.461,2.937-3.249,11.979-1.136,15.176c2.109,3.192,12.67,1.492,14.404,4.916c1.725,3.407-5.896,10.905-4.57,14.515
			c1.314,3.577,11.981,4.362,12.876,8.112c0.882,3.697-8.275,9.213-7.826,13.053C268.064,124.19,278.257,127.435,278.257,131.313z"
			/>
	</g>
	<ellipse fill="#70111E" cx="169.599" cy="131.803" rx="90.521" ry="87.656"/>
	<rect x="161.575" y="54.96" fill="#E7C249" width="14.89" height="5.278"/>
	
		<rect x="189.754" y="61.219" transform="matrix(0.9255 0.3788 -0.3788 0.9255 38.7824 -69.7642)" fill="#E7C249" width="13.849" height="4.909"/>
	
		<rect x="213.149" y="76.626" transform="matrix(0.713 0.7012 -0.7012 0.713 118.6228 -131.6181)" fill="#E7C249" width="13.849" height="4.909"/>
	
		<rect x="228.963" y="99.748" transform="matrix(0.3942 0.919 -0.919 0.3942 236.8373 -154.8726)" fill="#E7C249" width="13.849" height="4.909"/>
	
		<rect x="234.839" y="127.137" transform="matrix(0.0166 0.9999 -0.9999 0.0166 367.3215 -114.2914)" fill="#E7C249" width="13.849" height="4.909"/>
	
		<rect x="230.83" y="154.711" transform="matrix(-0.3634 0.9316 -0.9316 -0.3634 470.5789 -7.2165)" fill="#E7C249" width="13.849" height="4.909"/>
	
		<rect x="214.884" y="178.359" transform="matrix(-0.6893 0.7245 -0.7245 -0.6893 505.6953 144.7404)" fill="#E7C249" width="13.849" height="4.909"/>
	
		<rect x="192.028" y="194.555" transform="matrix(-0.9124 0.4094 -0.4094 -0.9124 461.1222 295.3073)" fill="#F5C258" width="13.849" height="4.909"/>
	
		<rect x="164.74" y="200.885" transform="matrix(-0.9994 0.0332 -0.0332 -0.9994 349.9903 400.8644)" fill="#F5C258" width="13.849" height="4.909"/>
	
		<rect x="137.088" y="196.405" transform="matrix(-0.9375 -0.3479 0.3479 -0.9375 209.8487 435.3991)" fill="#F5C258" width="13.849" height="4.909"/>
	
		<rect x="113.194" y="181.784" transform="matrix(-0.7359 -0.6771 0.6771 -0.7359 83.7546 401.1488)" fill="#E7C249" width="13.849" height="4.909"/>
	
		<rect x="96.621" y="159.2" transform="matrix(-0.4245 -0.9054 0.9054 -0.4245 1.1297 324.0278)" fill="#E7C249" width="13.849" height="4.909"/>
	
		<rect x="89.838" y="132.021" transform="matrix(-0.0498 -0.9988 0.9988 -0.0498 -32.7252 237.8179)" fill="#E7C249" width="13.849" height="4.909"/>
	
		<rect x="93.858" y="104.298" transform="matrix(0.3323 -0.9432 0.9432 0.3323 -33.392 166.3392)" fill="#E7C249" width="13.849" height="4.909"/>
	
		<rect x="108.08" y="80.165" transform="matrix(0.6648 -0.747 0.747 0.6648 -23.1695 113.6019)" fill="#E7C249" width="13.849" height="4.909"/>
	
		<rect x="130.386" y="63.218" transform="matrix(0.8983 -0.4395 0.4395 0.8983 -14.891 67.0244)" fill="#E7C249" width="13.849" height="4.909"/>
	<path fill="#DB7027" d="M201.131,101.727"/>
	<g>
		<g>
			<path fill="#ADB1B2" d="M1.801,254.047c0,0,37.001-14.451,57.379-6.526l8.044,13.519l30.566,27.038c0,0-47.726-14.917-79.901,0
				l11.798-21.465C29.686,266.611,16.458,255.756,1.801,254.047z"/>
		</g>
		<path fill="#ADB1B2" d="M58.195,255.48l39.595,32.486v-46.022C97.79,241.944,77.77,245.425,58.195,255.48z"/>
	</g>
	<g>
		<g>
			<path fill="#ADB1B2" d="M339.77,254.102c0,0-37.001-14.451-57.379-6.526l-8.044,13.519l-30.566,27.038
				c0,0,47.726-14.917,79.901,0l-11.798-21.465C311.885,266.667,325.112,255.811,339.77,254.102z"/>
			<path fill="#ADB1B2" d="M283.376,255.535l-39.595,32.486V242C243.781,242,263.801,245.48,283.376,255.535z"/>
		</g>
	</g>
	<path fill="#CC2030" d="M61.334,255.929l-18.414-42.42c0,0,123.377-54.426,256.881,0l-19.335,42.42
		C280.466,255.929,199.442,209.507,61.334,255.929z"/>
	
		<ellipse transform="matrix(0.9997 -0.0249 0.0249 0.9997 -8.3556 4.3693)" fill="none" cx="171.46" cy="338.063" rx="177.672" ry="115.723"/>
	
		<text transform="matrix(0.0067 -1.0528 1 0.0064 -6.1952 342.6378)" fill="#F9A11C" font-family="'FranklinGothic-DemiCond'" font-size="26.0803"> </text>
	
		<text transform="matrix(0.0733 -1.0502 0.9976 0.0697 -6.1729 337.7822)" fill="#F9A11C" font-family="'FranklinGothic-DemiCond'" font-size="26.0803"> </text>
	
		<text transform="matrix(0.1394 -1.0435 0.9912 0.1324 -5.843 332.9404)" fill="#F9A11C" font-family="'FranklinGothic-DemiCond'" font-size="26.0803"> </text>
	
		<text transform="matrix(0.204 -1.0328 0.981 0.1938 -5.2098 328.139)" fill="#F9A11C" font-family="'FranklinGothic-DemiCond'" font-size="26.0803"> </text>
	
		<text transform="matrix(0.2666 -1.0185 0.9674 0.2533 -4.2785 323.382)" fill="#F9A11C" font-family="'FranklinGothic-DemiCond'" font-size="26.0803"> </text>
	
		<text transform="matrix(0.3269 -1.0008 0.9506 0.3105 -3.0533 318.6782)" fill="#F9A11C" font-family="'FranklinGothic-DemiCond'" font-size="26.0803"> </text>
	
		<text transform="matrix(0.3845 -0.9801 0.9309 0.3652 -1.5406 314.0258)" fill="#F9A11C" font-family="'FranklinGothic-DemiCond'" font-size="26.0803"> </text>
	
		<text transform="matrix(0.4385 -0.9571 0.9091 0.4165 0.236 309.4803)" fill="#F9A11C" font-family="'FranklinGothic-DemiCond'" font-size="26.0803"> </text>
	
		<text transform="matrix(0.4891 -0.9323 0.8855 0.4646 2.2645 305.0427)" fill="#F9A11C" font-family="'FranklinGothic-DemiCond'" font-size="26.0803"> </text>
	
		<text transform="matrix(0.5362 -0.906 0.8606 0.5093 4.5296 300.7145)" fill="#F9A11C" font-family="'FranklinGothic-DemiCond'" font-size="26.0803"> </text>
	
		<text transform="matrix(0.5801 -0.8786 0.8345 0.551 7.0319 296.4762)" fill="#F9A11C" font-family="'FranklinGothic-DemiCond'" font-size="26.0803"> </text>
	
		<text transform="matrix(0.6205 -0.8505 0.8078 0.5894 9.734 292.3764)" fill="#F9A11C" font-family="'FranklinGothic-DemiCond'" font-size="26.0803"> </text>
	
		<text transform="matrix(0.6578 -0.822 0.7807 0.6248 12.6368 288.3938)" fill="#F9A11C" font-family="'FranklinGothic-DemiCond'" font-size="26.0803"> </text>
	
		<text transform="matrix(0.6921 -0.7934 0.7536 0.6574 15.7091 284.5486)" fill="#F9A11C" font-family="'FranklinGothic-DemiCond'" font-size="26.0803"> </text>
	
		<text transform="matrix(0.7238 -0.7646 0.7262 0.6875 18.973 280.8042)" fill="#F9A11C" font-family="'FranklinGothic-DemiCond'" font-size="26.0803"> </text>
	
		<text transform="matrix(0.7526 -0.7362 0.6992 0.7149 22.3638 277.2178)" fill="#F9A11C" font-family="'FranklinGothic-DemiCond'" font-size="26.0803"> </text>
	
		<text transform="matrix(0.7792 -0.708 0.6725 0.7401 25.9042 273.7507)" fill="#F9A11C" font-family="'FranklinGothic-DemiCond'" font-size="26.0803"> </text>
	
		<text transform="matrix(0.8037 -0.6801 0.646 0.7634 29.5834 270.4072)" fill="#F9A11C" font-family="'FranklinGothic-DemiCond'" font-size="26.0803"> </text>
	
		<text transform="matrix(0.8262 -0.6525 0.6198 0.7847 33.3911 267.1807)" fill="#F9A11C" font-family="'FranklinGothic-DemiCond'" font-size="26.0803"> </text>
	
		<text transform="matrix(0.8467 -0.6257 0.5943 0.8042 37.2739 264.1115)" fill="#F9A11C" font-family="'FranklinGothic-DemiCond'" font-size="26.0803"> </text>
	
		<text transform="matrix(0.8657 -0.5992 0.5691 0.8223 41.2859 261.1455)" fill="#F9A11C" font-family="'FranklinGothic-DemiCond'" font-size="26.0803"> </text>
	
		<text transform="matrix(0.8832 -0.5731 0.5443 0.8389 45.397 258.2983)" fill="#F9A11C" font-family="'FranklinGothic-DemiCond'" font-size="26.0803"> </text>
	
		<text transform="matrix(0.8993 -0.5474 0.52 0.8542 49.599 255.5699)" fill="#F9A11C" font-family="'FranklinGothic-DemiCond'" font-size="26.0803"> </text>
	
		<text transform="matrix(0.9141 -0.5224 0.4962 0.8682 53.8576 252.9759)" fill="#F9A11C" font-family="'FranklinGothic-DemiCond'" font-size="26.0803"> </text>
	
		<text transform="matrix(0.9277 -0.4978 0.4728 0.8811 58.1894 250.4992)" fill="#F9A11C" font-family="'FranklinGothic-DemiCond'" font-size="26.0803"> </text>
	
		<text transform="matrix(0.9403 -0.4735 0.4498 0.8931 62.6127 248.1248)" fill="#F9A11C" font-family="'FranklinGothic-DemiCond'" font-size="26.0803"> </text>
	
		<text transform="matrix(0.9519 -0.4497 0.4272 0.9042 67.0955 245.8661)" fill="#F9A11C" font-family="'FranklinGothic-DemiCond'" font-size="26.0803"> </text>
	
		<text transform="matrix(0.9626 -0.4263 0.4049 0.9143 71.6301 243.7234)" fill="#F9A11C" font-family="'FranklinGothic-DemiCond'" font-size="26.0803"> </text>
	
		<text transform="matrix(0.9725 -0.4033 0.3831 0.9237 76.2104 241.6928)" fill="#F9A11C" font-family="'FranklinGothic-DemiCond'" font-size="26.0803"> </text>
	
		<text transform="matrix(0.9816 -0.3806 0.3615 0.9324 80.8582 239.7651)" fill="#F9A11C" font-family="'FranklinGothic-DemiCond'" font-size="26.0803"> </text>
	
		<text transform="matrix(0.9899 -0.3583 0.3404 0.9403 85.54 237.9479)" fill="#F9A11C" font-family="'FranklinGothic-DemiCond'" font-size="26.0803"> </text>
	
		<text transform="matrix(0.9976 -0.3364 0.3195 0.9476 90.2486 236.2434)" fill="#F9A11C" font-family="'FranklinGothic-DemiCond'" font-size="26.0803"> </text>
	
		<text transform="matrix(1.0047 -0.3147 0.2989 0.9543 95.0104 234.6362)" fill="#F9A11C" font-family="'FranklinGothic-DemiCond'" font-size="26.0803"> </text>
	
		<text transform="matrix(0.9648 -0.2629 0.2629 0.9648 99.7081 233.0843)" fill="#F4F4F4" font-family="'FranklinGothic-DemiCond'" font-size="24.0741">C</text>
	
		<text transform="matrix(0.9774 -0.2113 0.2113 0.9774 112.178 229.6774)" fill="#F4F4F4" font-family="'FranklinGothic-DemiCond'" font-size="24.0741">O</text>
	
		<text transform="matrix(0.987 -0.1605 0.1605 0.987 125.1721 226.8631)" fill="#F4F4F4" font-family="'FranklinGothic-DemiCond'" font-size="24.0741">D</text>
	
		<text transform="matrix(0.9934 -0.1145 0.1145 0.9934 138.3417 224.743)" fill="#F4F4F4" font-family="'FranklinGothic-DemiCond'" font-size="24.0741">E</text>
	
		<text transform="matrix(0.9963 -0.0856 0.0856 0.9963 149.6164 223.4934)" fill="#F4F4F4" font-family="'FranklinGothic-DemiCond'" font-size="24.0741"> </text>
	
		<text transform="matrix(0.9984 -0.0569 0.0569 0.9984 153.9612 223.0679)" fill="#F4F4F4" font-family="'FranklinGothic-DemiCond'" font-size="24.0741">E</text>
	
		<text transform="matrix(0.9999 -0.0126 0.0126 0.9999 165.2234 222.3979)" fill="#F4F4F4" font-family="'FranklinGothic-DemiCond'" font-size="24.0741">N</text>
	
		<text transform="matrix(0.9993 0.0366 -0.0366 0.9993 178.5575 222.2196)" fill="#F4F4F4" font-family="'FranklinGothic-DemiCond'" font-size="24.0741">G</text>
	
		<text transform="matrix(0.9973 0.074 -0.074 0.9973 192.325 222.7885)" fill="#F4F4F4" font-family="'FranklinGothic-DemiCond'" font-size="24.0741">I</text>
	
		<text transform="matrix(0.9938 0.1112 -0.1112 0.9938 198.6983 223.1936)" fill="#F4F4F4" font-family="'FranklinGothic-DemiCond'" font-size="24.0741">N</text>
	
		<text transform="matrix(0.9873 0.1586 -0.1586 0.9873 211.9443 224.6918)" fill="#F4F4F4" font-family="'FranklinGothic-DemiCond'" font-size="24.0741">E</text>
	
		<text transform="matrix(0.9792 0.2031 -0.2031 0.9792 223.08 226.4759)" fill="#F4F4F4" font-family="'FranklinGothic-DemiCond'" font-size="24.0741">E</text>
	
		<text transform="matrix(0.9677 0.2523 -0.2523 0.9677 234.127 228.737)" fill="#F4F4F4" font-family="'FranklinGothic-DemiCond'" font-size="24.0741">R</text>
	<path fill="#DB7027" d="M208.861,129.592"/>
	
		<text transform="matrix(1 0 0 1 137.6239 118.6184)" fill="#FFFFFF" font-family="'Swiss721BT-BoldCondensed'" font-size="32.0988">100%</text>
	<text transform="matrix(1 0 0 1 122.3994 150.3331)" fill="#F6F5F6" font-family="'FranklinGothic-DemiCond'" font-size="16.0494">JOB GUARANTEE</text>
	<polygon fill="#E7C249" points="143.474,163.172 146.108,168.51 152,169.366 147.737,173.521 148.743,179.389 143.474,176.619 
		138.204,179.389 139.211,173.521 134.948,169.366 140.839,168.51 	"/>
	<polygon fill="#E7C249" points="169.599,163.172 172.234,168.51 178.125,169.366 173.862,173.521 174.868,179.389 169.599,176.619 
		164.33,179.389 165.336,173.521 161.073,169.366 166.964,168.51 	"/>
	<polygon fill="#E7C249" points="195.724,163.172 198.359,168.51 204.25,169.366 199.987,173.521 200.994,179.389 195.724,176.619 
		190.455,179.389 191.461,173.521 187.198,169.366 193.09,168.51 	"/>
	<text transform="matrix(1 0 0 1 223.3701 147.1038)" fill="#ADACAC" font-family="'FranklinGothic-DemiCond'" font-size="14.0432">*</text>
</g>
</svg>
