<?xml version="1.0" encoding="utf-8"?>
<!-- Generator: Adobe Illustrator 17.0.0, SVG Export Plug-In . SVG Version: 6.00 Build 0)  -->
<!DOCTYPE svg PUBLIC "-//W3C//DTD SVG 1.1//EN" "http://www.w3.org/Graphics/SVG/1.1/DTD/svg11.dtd">
<svg version="1.1" id="Layer_1" xmlns="http://www.w3.org/2000/svg" xmlns:xlink="http://www.w3.org/1999/xlink" x="0px" y="0px"
	 width="339px" height="337.026px" viewBox="0 0 339 337.026" enable-background="new 0 0 339 337.026" xml:space="preserve">
<g>
	<path fill="#4B5E66" d="M766.25,327.689H642.164c-7.785,0-14.095-6.31-14.095-14.095V65.784c0-7.785,6.31-14.095,14.095-14.095
		h124.091c7.78,0,14.09,6.31,14.09,14.095v247.815C780.345,321.379,774.035,327.689,766.25,327.689z"/>
	<rect x="628.069" y="80.241" fill="#2D1930" width="152.276" height="209.379"/>
	<g>
		<path fill="#273035" d="M723.241,61.206h-23.793c-2.627,0-4.759,2.127-4.759,4.759c0,2.632,2.132,4.759,4.759,4.759h23.793
			c2.627,0,4.759-2.127,4.759-4.759C728,63.333,725.868,61.206,723.241,61.206z"/>
		<path fill="#273035" d="M685.172,61.206h-4.759c-2.627,0-4.759,2.127-4.759,4.759c0,2.632,2.132,4.759,4.759,4.759h4.759
			c2.627,0,4.759-2.127,4.759-4.759C689.931,63.333,687.799,61.206,685.172,61.206z"/>
	</g>
	
		<line fill="none" stroke="#CBD4D8" stroke-width="2" stroke-linecap="round" stroke-miterlimit="10" x1="623.31" y1="94.517" x2="623.31" y2="99.275"/>
	
		<line fill="none" stroke="#CBD4D8" stroke-width="2" stroke-linecap="round" stroke-miterlimit="10" x1="623.31" y1="113.551" x2="623.31" y2="118.31"/>
	
		<line fill="none" stroke="#CBD4D8" stroke-width="2" stroke-linecap="round" stroke-miterlimit="10" x1="623.31" y1="132.586" x2="623.31" y2="137.344"/>
	<circle fill="#273035" cx="704.207" cy="308.655" r="14.276"/>
	<path fill="#DD352E" d="M755.833,270.586h-17.597c-0.395,0-0.719-0.324-0.719-0.719V252.27c0-0.395,0.324-0.719,0.719-0.719h17.597
		c0.395,0,0.719,0.324,0.719,0.719v17.597C756.552,270.262,756.228,270.586,755.833,270.586z"/>
	<path fill="#3083C9" d="M713.006,270.586h-17.597c-0.395,0-0.719-0.324-0.719-0.719V252.27c0-0.395,0.324-0.719,0.719-0.719h17.597
		c0.395,0,0.719,0.324,0.719,0.719v17.597C713.724,270.262,713.401,270.586,713.006,270.586z"/>
	<path fill="#A4E869" d="M670.178,270.586h-17.597c-0.395,0-0.719-0.324-0.719-0.719V252.27c0-0.395,0.324-0.719,0.719-0.719h17.597
		c0.395,0,0.719,0.324,0.719,0.719v17.597C670.897,270.262,670.573,270.586,670.178,270.586z"/>
</g>
<g>
	<circle fill="#254593" cx="169.587" cy="169" r="165.291"/>
	<path fill="#CFD0D1" d="M299.753,216.521H39.421l-28.926,72.831c-4.649,13.43,5.165,26.86,19.112,26.86h279.961
		c13.947,0,23.761-13.947,19.112-26.86L299.753,216.521z"/>
	<path fill="#0B2B42" d="M309.567,321.378H29.607c-8.264,0-16.012-4.133-20.662-10.847c-4.649-6.715-6.198-15.496-3.099-23.244
		l28.926-72.831c1.033-2.066,2.582-3.099,4.649-3.099h259.816c2.066,0,4.133,1.033,4.649,3.099l28.926,72.831
		c3.099,8.264,1.55,16.529-3.099,23.244C325.58,317.762,317.832,321.378,309.567,321.378z M43.037,221.687L15.66,291.418
		c-1.55,4.133-1.033,9.297,1.55,13.43c3.099,4.133,7.748,6.198,12.397,6.198h279.961c5.165,0,9.297-2.582,12.397-6.198
		c3.099-4.133,3.616-9.297,2.066-13.947l-27.893-69.216L43.037,221.687L43.037,221.687z"/>
	<polygon fill="#FFFFFF" points="30.123,295.551 53.883,237.183 285.29,237.183 309.051,295.551 	"/>
	<polygon fill="#173651" points="130.331,268.174 123.616,285.22 215.558,285.22 208.844,268.174 	"/>
	<path fill="#E1E6E8" d="M284.257,29.536H54.917c-8.781,0-15.496,6.715-15.496,15.496v171.489h259.816V45.032
		C299.753,36.251,292.522,29.536,284.257,29.536z"/>
	<path fill="#0B2B42" d="M299.753,221.687H39.421c-3.099,0-5.165-2.066-5.165-5.165V45.032c0-11.364,9.297-20.662,20.662-20.662
		h228.824c11.364,0,20.661,9.297,20.661,20.662v171.489C304.919,219.62,302.336,221.687,299.753,221.687z M44.586,211.356h249.485
		V45.032c0-5.682-4.649-10.331-10.331-10.331H54.917c-5.682,0-10.331,4.649-10.331,10.331L44.586,211.356z"/>
	<rect x="60.082" y="50.198" fill="#FFFFFF" width="218.494" height="145.662"/>
	<g>
		<polygon fill="#183651" points="239.835,119.413 232.087,119.413 232.087,89.97 259.98,67.243 259.98,50.198 267.728,50.198 
			267.728,70.859 239.835,93.586 		"/>
		<polygon fill="#183651" points="216.591,99.268 208.844,99.268 208.844,79.124 230.021,62.595 230.021,50.198 237.77,50.198 
			237.77,66.21 216.591,83.255 		"/>
		<polygon fill="#183651" points="194.381,88.938 186.632,88.938 186.632,72.925 202.645,59.496 202.645,50.198 210.393,50.198 
			210.393,63.111 194.381,76.541 		"/>
		<rect x="165.971" y="50.198" fill="#183651" width="7.748" height="36.674"/>
		<polygon fill="#183651" points="107.087,119.413 99.338,119.413 99.338,93.586 71.446,70.859 71.446,50.198 79.194,50.198 
			79.194,67.243 107.087,89.97 		"/>
		<polygon fill="#183651" points="130.331,99.268 122.582,99.268 122.582,83.255 101.405,66.21 101.405,50.198 109.152,50.198 
			109.152,62.078 130.331,79.124 		"/>
		<polygon fill="#183651" points="152.541,88.938 144.793,88.938 144.793,76.541 128.781,63.111 128.781,50.198 136.529,50.198 
			136.529,59.496 152.541,72.925 		"/>
		<polygon fill="#183651" points="79.194,195.86 71.446,195.86 71.446,175.199 99.338,152.471 99.338,126.645 107.087,126.645 
			107.087,156.087 79.194,178.815 		"/>
		<polygon fill="#183651" points="109.152,195.86 101.405,195.86 101.405,180.364 122.582,163.319 122.582,146.79 130.331,146.79 
			130.331,166.934 109.152,183.98 		"/>
		<polygon fill="#183651" points="136.529,195.86 128.781,195.86 128.781,183.463 144.793,170.033 144.793,157.12 152.541,157.12 
			152.541,173.649 136.529,187.079 		"/>
		<rect x="165.971" y="159.186" fill="#183651" width="7.748" height="36.674"/>
		<polygon fill="#183651" points="267.728,195.86 259.98,195.86 259.98,178.815 232.087,156.087 232.087,126.645 239.835,126.645 
			239.835,152.471 267.728,175.199 		"/>
		<polygon fill="#183651" points="237.77,195.86 230.021,195.86 230.021,183.98 208.844,166.934 208.844,146.79 216.591,146.79 
			216.591,163.319 237.77,180.364 		"/>
		<polygon fill="#183651" points="210.393,195.86 202.645,195.86 202.645,187.079 186.632,173.649 186.632,157.12 194.381,157.12 
			194.381,170.033 210.393,183.463 		"/>
	</g>
	<path fill="#FFFFFF" d="M95.206,123.029L95.206,123.029c40.806,48.037,107.439,48.037,148.245,0
		C202.645,74.991,136.529,74.991,95.206,123.029z"/>
	<path fill="#183651" d="M169.587,162.802L169.587,162.802c-29.442,0-56.819-13.43-76.963-37.19l-2.066-2.582l2.066-2.582
		c20.662-24.277,48.037-37.19,76.963-37.19s56.819,13.43,76.963,37.19l2.066,2.582l-2.066,2.582
		C226.405,149.889,199.03,162.802,169.587,162.802z M100.372,123.029c18.595,20.662,43.389,32.025,69.216,32.025l0,0
		c25.827,0,50.104-11.364,69.216-32.025c-18.595-20.662-43.389-32.025-69.216-32.025S119.483,102.367,100.372,123.029z"/>
	<circle fill="#1686B2" cx="169.587" cy="123.029" r="26.343"/>
	<circle fill="#FFFFFF" cx="181.984" cy="110.632" r="4.133"/>
	<g>
		<rect x="66.797" y="246.48" fill="#183651" width="10.331" height="10.331"/>
		<rect x="99.338" y="246.48" fill="#183651" width="10.331" height="10.331"/>
		<rect x="131.88" y="246.48" fill="#183651" width="10.331" height="10.331"/>
		<rect x="164.421" y="246.48" fill="#183651" width="10.331" height="10.331"/>
		<rect x="196.963" y="246.48" fill="#183651" width="10.331" height="10.331"/>
		<rect x="229.505" y="246.48" fill="#183651" width="10.331" height="10.331"/>
		<rect x="262.046" y="246.48" fill="#183651" width="10.331" height="10.331"/>
	</g>
</g>
</svg>
