<svg xmlns="http://www.w3.org/2000/svg" xmlns:xlink="http://www.w3.org/1999/xlink" version="1.1" id="Capa_1" x="0" y="0" viewBox="0 0 27.44 27.44" xml:space="preserve" width="512" height="512" enable-background="new 0 0 27.442 27.442">
  <path d="M19.49 0H7.95C6.84 0 5.95 0.9 5.95 2v23.45c0 1.1 0.89 2 2 2h11.55c1.1 0 2-0.89 2-2V2C21.49 0.9 20.6 0 19.49 0zM10.87 1.21h5.7c0.14 0 0.26 0.22 0.26 0.48s-0.12 0.48-0.26 0.48h-5.7c-0.14 0-0.26-0.22-0.26-0.48C10.61 1.43 10.73 1.21 10.87 1.21zM13.72 25.47c-0.7 0-1.27-0.57-1.27-1.28s0.57-1.27 1.27-1.27c0.7 0 1.27 0.57 1.27 1.27S14.42 25.47 13.72 25.47zM20 21.1H7.45V3.37h12.55V21.1z" fill="#2196f3"/>
</svg>
