<svg xmlns="http://www.w3.org/2000/svg" id="Layer_1" viewBox="-6 -26 56.6 126" class="style0"><style>.style0{enable-background:new -6 -26 56.6 126}.style1{stop-color:#e3e2ce}.style2{stop-color:#ceceb5}.style3{stop-color:#95966f}.style4{stop-color:#198332}.style5{stop-color:#24933b}.style6{stop-color:#0f9b36}.style7{stop-color:#64bb66}</style><style>.st0{fill:url(#path1268_1_)}.st1{fill:url(#path871_1_)}.st2{fill:url(#path873_1_)}</style><linearGradient id="path1268_1_" gradientUnits="userSpaceOnUse" x1="1122.5" y1="-9741.7" x2="1049.5" y2="-9694.8" gradientTransform="matrix(.0335 0 0 -.0335 15.377 -269.658)"><stop offset="0" class="style1"/><stop offset=".451" class="style2"/><stop offset="1" class="style3"/></linearGradient><path id="path1268_11_" class="st0" d="M21.6-26c-.4-.1.7 2-1.9 5.3C17-17.2-5.3-2.8-6 36c-.5 26.4 20.4 44.9 25.7 48.3 0 0 2 6.8 2 14.8l3.5.9c-.4-8.2-.5-13 1.8-16.6 3.3-1.6 24.4-19.6 23.5-47.4-1.1-33.2-19.7-47.6-25-54.5-2.2-3.1-3.2-7.4-3.9-7.5z"/><linearGradient id="path871_1_" gradientUnits="userSpaceOnUse" x1="619.1" y1="-10453" x2="618.9" y2="-9891" gradientTransform="matrix(.0335 0 0 -.0335 15.377 -269.658)"><stop offset="0" class="style4"/><stop offset="1" class="style5"/></linearGradient><path id="path871_11_" class="st1" d="M21.6-26c1.9 6.2 1.6 34.6 2 61.9.4 24.7-4.3 43.9 3.5 47.4 3.3-1.6 24.4-19.6 23.5-47.4-1.1-33.2-19.7-47.6-25-54.5-2.3-3-3.3-7.3-4-7.4z"/><linearGradient id="path873_1_" gradientUnits="userSpaceOnUse" x1="-669.4" y1="-9690.6" x2="-389.9" y2="-9430.1" gradientTransform="matrix(.0335 0 0 -.0335 15.377 -269.658)"><stop offset="0" class="style6"/><stop offset="1" class="style7"/></linearGradient><path id="path873_11_" class="st2" d="M21.6-26c-.4-.1.7 2-1.9 5.3C16.9-17.2-5.3-2.8-6 36c-.5 26.4 20.4 44.9 25.7 48.3 1.5-.7 2.2-7.6 2.8-15.5 0-8.5 1.2-19.9 1-32.8-.3-25.6-.1-52.2-1.6-60.6v-.1c-.1-.4-.2-.8-.3-1.3z"/></svg>