<svg width="256" height="252" viewBox="0 0 256 252" version="1.1" xmlns="http://www.w3.org/2000/svg" xmlns:xlink="http://www.w3.org/1999/xlink" preserveAspectRatio="xMidYMid">
  <path d="M235.65 194.21C221.73 193.86 210.94 195.26 201.9 199.08 199.29 200.13 195.11 200.13 194.76 203.43 196.15 204.83 196.33 207.09 197.55 209 199.64 212.48 203.29 217.18 206.59 219.61 210.25 222.4 213.9 225.18 217.73 227.62 224.51 231.79 232.17 234.23 238.78 238.4 242.61 240.84 246.43 243.97 250.26 246.58 252.18 247.97 253.39 250.23 255.83 251.1L255.83 250.58C254.61 249.02 254.26 246.75 253.05 245.02 251.31 243.28 249.57 241.71 247.83 239.97 242.78 233.18 236.52 227.27 229.73 222.4 224.17 218.57 211.99 213.35 209.72 206.91 209.72 206.91 209.55 206.74 209.38 206.57 213.2 206.22 217.73 204.83 221.38 203.78 227.3 202.22 232.69 202.56 238.78 201 241.56 200.3 244.35 199.43 247.13 198.56L247.13 197C244 193.86 241.74 189.69 238.43 186.73 229.56 179.08 219.82 171.6 209.72 165.33 204.33 161.85 197.37 159.59 191.63 156.63 189.54 155.59 186.06 155.07 184.85 153.33 181.71 149.5 179.97 144.45 177.71 139.93 172.67 130.36 167.79 119.75 163.45 109.66 160.32 102.87 158.4 96.09 154.57 89.82 136.65 60.25 117.17 42.33 87.24 24.76 80.8 21.1 73.15 19.54 64.97 17.62 60.62 17.45 56.27 17.1 51.92 16.93 49.14 15.71 46.36 12.4 43.92 10.84 34.01 4.57 8.43-9 1.12 8.92 -3.58 20.23 8.08 31.37 12.08 37.11 15.04 41.11 18.87 45.63 20.96 50.16 22.17 53.11 22.52 56.25 23.74 59.38 26.52 67.03 29.13 75.56 32.79 82.69 34.7 86.34 36.79 90.17 39.22 93.48 40.62 95.39 43.05 96.26 43.57 99.39 41.14 102.87 40.96 108.09 39.57 112.44 33.31 132.1 35.74 156.46 44.62 170.9 47.4 175.25 54.01 184.82 62.89 181.16 70.71 178.03 68.97 168.12 71.24 159.42 71.76 157.33 71.41 155.94 72.45 154.55 72.45 154.72 72.45 154.89 72.45 154.89 74.89 159.76 77.33 164.46 79.59 169.33 84.98 177.86 94.38 186.73 102.2 192.65 106.38 195.78 109.69 201.17 114.91 203.09L114.91 202.56 114.56 202.56C113.51 201 111.95 200.3 110.56 199.08 107.42 195.95 103.94 192.12 101.51 188.65 94.2 178.9 87.76 168.12 82.02 156.98 79.24 151.59 76.8 145.67 74.54 140.28 73.5 138.19 73.5 135.06 71.76 134.02 69.15 137.84 65.32 141.15 63.41 145.85 60.1 153.33 59.75 162.55 58.54 172.12 57.84 172.29 58.19 172.12 57.84 172.47 52.27 171.07 50.36 165.33 48.27 160.46 43.05 148.11 42.18 128.27 46.71 114.01 47.92 110.35 53.14 98.87 51.05 95.39 50.01 92.09 46.53 90.17 44.62 87.56 42.36 84.26 39.92 80.08 38.35 76.43 34.18 66.69 32.09 55.9 27.57 46.15 25.48 41.63 21.83 36.93 18.87 32.76 15.56 28.06 11.91 24.76 9.3 19.19 8.43 17.27 7.21 14.14 8.6 12.06 8.95 10.66 9.65 10.14 11.04 9.79 13.3 7.88 19.74 10.32 22 11.36 28.44 13.97 33.83 16.4 39.22 20.06 41.66 21.8 44.27 25.1 47.4 25.97L51.05 25.97C56.62 27.19 62.88 26.32 68.1 27.89 77.33 30.84 85.68 35.19 93.16 39.89 115.95 54.33 134.74 74.86 147.44 99.39 149.53 103.39 150.4 107.05 152.31 111.22 155.97 119.75 160.49 128.45 164.14 136.8 167.79 144.98 171.27 153.33 176.49 160.11 179.1 163.77 189.54 165.68 194.24 167.59 197.72 169.16 203.11 170.55 206.25 172.47 212.16 176.12 218.08 180.29 223.64 184.3 226.43 186.38 235.13 190.73 235.65 194.21L235.65 194.21 235.65 194.21Z" fill="#00546B"/>
  <path d="M58.19 43.02C55.23 43.02 53.14 43.37 51.05 43.89 51.05 43.89 51.05 44.07 51.05 44.24L51.4 44.24C52.79 47.02 55.23 48.94 56.97 51.37 58.36 54.16 59.58 56.94 60.97 59.73 61.14 59.55 61.32 59.38 61.32 59.38 63.76 57.64 64.97 54.85 64.97 50.68 63.93 49.46 63.75 48.24 62.88 47.02 61.84 45.28 59.58 44.41 58.19 43.02L58.19 43.02 58.19 43.02Z" fill="#00546B"/>
</svg>
