<svg width="256" height="264" viewBox="0 0 256 264" version="1.1" xmlns="http://www.w3.org/2000/svg" xmlns:xlink="http://www.w3.org/1999/xlink" preserveAspectRatio="xMidYMid">
  <path d="M255.01 158.09C253.47 153.44 249.45 150.2 244.25 149.42 241.8 149.06 238.99 149.21 235.67 149.9 229.88 151.09 225.58 151.55 222.44 151.64 234.28 131.65 243.91 108.86 249.45 87.41 258.41 52.72 253.62 36.92 248.02 29.77 233.22 10.85 211.61 0.68 185.55 0.37 171.65 0.2 159.44 2.95 153.08 4.92 147.15 3.88 140.77 3.29 134.09 3.18 121.55 2.98 110.47 5.72 101.01 11.33 95.77 9.56 87.36 7.06 77.65 5.47 54.8 1.72 36.39 4.64 22.93 14.15 6.62 25.67-0.94 45.68 0.46 73.63 0.9 82.51 5.87 109.51 13.69 135.11 18.18 149.83 22.97 162.05 27.92 171.44 34.95 184.76 42.47 192.6 50.91 195.42 55.64 196.99 64.24 198.1 73.28 190.57 74.42 191.95 75.95 193.33 77.98 194.61 80.56 196.24 83.71 197.57 86.86 198.35 98.2 201.19 108.82 200.48 117.88 196.51 117.94 198.12 117.98 199.66 118.02 200.99 118.08 203.15 118.14 205.26 118.22 207.24 118.75 220.61 119.66 231.01 122.36 238.29 122.51 238.69 122.71 239.3 122.92 239.94 124.26 244.06 126.51 250.96 132.23 256.36 138.16 261.95 145.33 263.66 151.89 263.66 155.18 263.66 158.32 263.23 161.08 262.64 170.9 260.54 182.05 257.33 190.12 245.84 197.75 234.98 201.45 218.63 202.12 192.85 202.21 192.12 202.29 191.43 202.37 190.76 202.42 190.32 202.47 189.86 202.53 189.4L204.33 189.56 204.79 189.59C214.79 190.05 227.02 187.93 234.53 184.44 240.47 181.68 259.49 171.64 255.01 158.09" fill="#000000"/>
  <path d="M237.91 160.72C208.17 166.86 206.12 156.79 206.12 156.79 237.52 110.19 250.65 51.05 239.32 36.58 208.42-2.91 154.92 15.77 154.03 16.25L153.74 16.3C147.87 15.08 141.29 14.36 133.9 14.23 120.44 14.01 110.24 17.76 102.49 23.64 102.49 23.64 7.06-15.68 11.5 73.08 12.44 91.96 38.56 215.95 69.72 178.5 81.1 164.81 92.11 153.23 92.11 153.23 97.57 156.86 104.11 158.71 110.97 158.05L111.5 157.59C111.34 159.29 111.41 160.96 111.72 162.93 103.69 171.89 106.05 173.47 90.01 176.77 73.77 180.12 83.31 186.07 89.53 187.63 97.08 189.52 114.55 192.19 126.35 175.67L125.88 177.56C129.02 180.08 131.23 193.94 130.86 206.51 130.49 219.08 130.24 227.71 132.72 234.45 135.2 241.19 137.67 256.35 158.76 251.83 176.38 248.06 185.52 238.27 186.79 221.94 187.69 210.34 189.73 212.05 189.86 201.68L191.49 196.76C193.38 181.03 191.79 175.95 202.65 178.31L205.29 178.55C213.28 178.91 223.74 177.26 229.88 174.41 243.1 168.27 250.94 158.03 237.9 160.72L237.91 160.72" fill="#336791"/>
  <path d="M108.08 81.53C105.4 81.15 102.97 81.5 101.74 82.43 101.05 82.95 100.84 83.56 100.78 83.97 100.63 85.08 101.4 86.3 101.87 86.93 103.22 88.71 105.19 89.94 107.13 90.21 107.42 90.25 107.7 90.27 107.97 90.27 111.22 90.27 114.17 87.74 114.43 85.88 114.76 83.54 111.36 81.98 108.08 81.53" fill="#FFFFFF"/>
  <path d="M196.86 81.6L196.86 81.6C196.6 79.77 193.35 79.25 190.25 79.68 187.17 80.11 184.17 81.5 184.42 83.33 184.62 84.76 187.2 87.2 190.25 87.2 190.51 87.2 190.77 87.18 191.03 87.14 193.06 86.86 194.56 85.57 195.27 84.82 196.35 83.69 196.97 82.42 196.86 81.6" fill="#FFFFFF"/>
  <path d="M247.8 160.03C246.67 156.6 243.02 155.49 236.95 156.75 218.95 160.46 212.5 157.89 210.38 156.33 224.38 135.01 235.89 109.24 242.1 85.19 245.05 73.8 246.67 63.22 246.8 54.6 246.95 45.14 245.34 38.18 242.01 33.94 228.61 16.81 208.94 7.63 185.13 7.37 168.76 7.19 154.93 11.38 152.25 12.56 146.61 11.15 140.45 10.29 133.75 10.18 121.46 9.98 110.84 12.92 102.05 18.92 98.23 17.5 88.35 14.11 76.28 12.16 55.41 8.8 38.82 11.35 26.99 19.74 12.86 29.74 6.34 47.63 7.61 72.89 8.03 81.4 12.88 107.55 20.52 132.59 30.58 165.56 41.52 184.22 53.03 188.06 54.37 188.51 55.93 188.82 57.64 188.82 61.84 188.82 66.99 186.93 72.34 180.49 81.24 169.79 89.54 160.82 92.6 157.56 97.13 159.99 102.1 161.35 107.18 161.48 107.19 161.62 107.2 161.75 107.21 161.88 106.19 163.09 105.36 164.15 104.64 165.06 101.12 169.53 100.39 170.46 89.05 172.79 85.83 173.46 77.26 175.22 77.14 181.23 77 187.79 87.26 190.54 88.43 190.83 92.5 191.85 96.43 192.36 100.17 192.36 109.28 192.36 117.29 189.37 123.69 183.58 123.49 206.96 124.47 230.01 127.27 237.03 129.57 242.78 135.19 256.82 152.94 256.82 155.54 256.82 158.41 256.52 161.56 255.84 180.08 251.87 188.12 243.69 191.24 225.64 192.9 216 195.76 192.96 197.1 180.61 199.94 181.49 203.59 181.9 207.54 181.9 215.77 181.9 225.27 180.15 231.22 177.38 237.92 174.28 249.99 166.65 247.8 160.03L247.8 160.03ZM203.7 76.54C203.63 80.19 203.13 83.5 202.6 86.96 202.03 90.68 201.44 94.52 201.29 99.18 201.14 103.72 201.71 108.44 202.26 113.01 203.36 122.23 204.5 131.72 200.1 141.09 199.41 139.87 198.75 138.55 198.15 137.08 197.6 135.75 196.41 133.62 194.77 130.67 188.37 119.2 173.39 92.32 181.06 81.36 183.34 78.09 189.14 74.74 203.7 76.54L203.7 76.54ZM186.05 14.76C207.39 15.23 224.26 23.21 236.21 38.48 245.37 50.19 235.28 103.48 206.07 149.45 205.78 149.08 205.49 148.71 205.18 148.33 205.06 148.18 204.94 148.02 204.81 147.87 212.36 135.4 210.89 123.07 209.57 112.13 209.03 107.64 208.52 103.4 208.65 99.42 208.79 95.2 209.35 91.58 209.88 88.08 210.55 83.77 211.22 79.31 211.04 74.04 211.18 73.49 211.23 72.84 211.16 72.07 210.68 67.02 204.92 51.92 193.18 38.26 186.76 30.78 177.4 22.42 164.61 16.77 170.11 15.63 177.63 14.57 186.05 14.76L186.05 14.76ZM66.67 175.78C60.77 182.87 56.7 181.51 55.36 181.07 46.63 178.15 36.5 159.7 27.57 130.44 19.84 105.12 15.32 79.67 14.97 72.53 13.84 49.95 19.31 34.21 31.23 25.76 50.64 12 82.54 20.23 95.36 24.41 95.18 24.59 94.98 24.76 94.8 24.95 73.77 46.19 74.27 82.49 74.32 84.71 74.32 85.56 74.39 86.77 74.49 88.44 74.85 94.55 75.52 105.91 73.72 118.78 72.05 130.73 75.73 142.44 83.83 150.88 84.67 151.76 85.55 152.58 86.45 153.35 82.84 157.21 75.01 165.75 66.67 175.78L66.67 175.78ZM89.15 145.78C82.63 138.98 79.66 129.5 81.02 119.8 82.92 106.2 82.22 94.36 81.84 88 81.79 87.12 81.74 86.34 81.71 85.72 84.79 83 99.03 75.36 109.18 77.69 113.82 78.75 116.64 81.91 117.82 87.34 123.89 115.44 118.62 127.15 114.39 136.57 113.51 138.5 112.69 140.34 111.98 142.23L111.44 143.7C110.05 147.41 108.77 150.85 107.97 154.12 101.03 154.1 94.28 151.14 89.15 145.78L89.15 145.78ZM90.22 183.69C88.19 183.18 86.37 182.3 85.3 181.57 86.19 181.15 87.78 180.58 90.54 180.01 103.88 177.27 105.94 175.33 110.43 169.62 111.47 168.31 112.63 166.82 114.25 165.02 114.25 165.01 114.25 165.01 114.25 165.01 116.67 162.31 117.77 162.77 119.77 163.6 121.39 164.27 122.97 166.3 123.61 168.54 123.91 169.59 124.25 171.6 123.14 173.16 113.74 186.31 100.05 186.15 90.22 183.69L90.22 183.69ZM160.02 248.64C143.7 252.13 137.92 243.81 134.12 234.29 131.66 228.15 130.45 200.44 131.31 169.84 131.32 169.44 131.26 169.04 131.15 168.67 131.05 167.96 130.9 167.24 130.69 166.51 129.42 162.06 126.32 158.34 122.59 156.79 121.11 156.18 118.39 155.05 115.13 155.89 115.83 153.02 117.03 149.78 118.34 146.28L118.89 144.8C119.51 143.14 120.28 141.41 121.11 139.59 125.54 129.74 131.61 116.25 125.02 85.78 122.55 74.37 114.31 68.79 101.82 70.09 94.33 70.86 87.47 73.88 84.05 75.62 83.32 75.99 82.65 76.35 82.02 76.7 82.97 65.2 86.58 43.71 100.06 30.11 108.55 21.55 119.85 17.32 133.63 17.55 160.77 17.99 178.17 31.92 187.99 43.53 196.46 53.53 201.04 63.6 202.87 69.04 189.12 67.64 179.76 70.35 175.02 77.13 164.7 91.88 180.66 120.51 188.33 134.26 189.74 136.78 190.95 138.96 191.34 139.89 193.83 145.94 197.07 149.98 199.43 152.94 200.15 153.84 200.86 154.72 201.39 155.48 197.22 156.68 189.74 159.46 190.42 173.33 189.87 180.29 185.96 212.87 183.97 224.39 181.35 239.6 175.75 245.26 160.02 248.64L160.02 248.64ZM228.12 170.7C223.86 172.68 216.73 174.16 209.96 174.48 202.48 174.83 198.67 173.64 197.78 172.91 197.36 164.27 200.57 163.36 203.98 162.41 204.51 162.26 205.04 162.11 205.54 161.94 205.85 162.19 206.2 162.44 206.57 162.69 212.58 166.66 223.31 167.09 238.44 163.96 238.5 163.95 238.56 163.94 238.61 163.93 236.57 165.84 233.08 168.4 228.12 170.7L228.12 170.7Z" fill="#FFFFFF"/>
</svg>
