<?xml version="1.0" encoding="utf-8"?>
<!-- Generator: Adobe Illustrator 17.0.0, SVG Export Plug-In . SVG Version: 6.00 Build 0)  -->
<!DOCTYPE svg PUBLIC "-//W3C//DTD SVG 1.1//EN" "http://www.w3.org/Graphics/SVG/1.1/DTD/svg11.dtd">
<svg version="1.1" id="Layer_1" xmlns="http://www.w3.org/2000/svg" xmlns:xlink="http://www.w3.org/1999/xlink" x="0px" y="0px"
	 width="339px" height="337.026px" viewBox="0 0 339 337.026" enable-background="new 0 0 339 337.026" xml:space="preserve">
<g>
	<path fill="#4B5E66" d="M766.25,327.689H642.164c-7.785,0-14.095-6.31-14.095-14.095V65.784c0-7.785,6.31-14.095,14.095-14.095
		h124.091c7.78,0,14.09,6.31,14.09,14.095v247.815C780.345,321.379,774.035,327.689,766.25,327.689z"/>
	<rect x="628.069" y="80.241" fill="#2D1930" width="152.276" height="209.379"/>
	<g>
		<path fill="#273035" d="M723.241,61.206h-23.793c-2.627,0-4.759,2.127-4.759,4.759c0,2.632,2.132,4.759,4.759,4.759h23.793
			c2.627,0,4.759-2.127,4.759-4.759C728,63.333,725.868,61.206,723.241,61.206z"/>
		<path fill="#273035" d="M685.172,61.206h-4.759c-2.627,0-4.759,2.127-4.759,4.759c0,2.632,2.132,4.759,4.759,4.759h4.759
			c2.627,0,4.759-2.127,4.759-4.759C689.931,63.333,687.799,61.206,685.172,61.206z"/>
	</g>
	
		<line fill="none" stroke="#CBD4D8" stroke-width="2" stroke-linecap="round" stroke-miterlimit="10" x1="623.31" y1="94.517" x2="623.31" y2="99.275"/>
	
		<line fill="none" stroke="#CBD4D8" stroke-width="2" stroke-linecap="round" stroke-miterlimit="10" x1="623.31" y1="113.551" x2="623.31" y2="118.31"/>
	
		<line fill="none" stroke="#CBD4D8" stroke-width="2" stroke-linecap="round" stroke-miterlimit="10" x1="623.31" y1="132.586" x2="623.31" y2="137.344"/>
	<circle fill="#273035" cx="704.207" cy="308.655" r="14.276"/>
	<path fill="#DD352E" d="M755.833,270.586h-17.597c-0.395,0-0.719-0.324-0.719-0.719V252.27c0-0.395,0.324-0.719,0.719-0.719h17.597
		c0.395,0,0.719,0.324,0.719,0.719v17.597C756.552,270.262,756.228,270.586,755.833,270.586z"/>
	<path fill="#3083C9" d="M713.006,270.586h-17.597c-0.395,0-0.719-0.324-0.719-0.719V252.27c0-0.395,0.324-0.719,0.719-0.719h17.597
		c0.395,0,0.719,0.324,0.719,0.719v17.597C713.724,270.262,713.401,270.586,713.006,270.586z"/>
	<path fill="#A4E869" d="M670.178,270.586h-17.597c-0.395,0-0.719-0.324-0.719-0.719V252.27c0-0.395,0.324-0.719,0.719-0.719h17.597
		c0.395,0,0.719,0.324,0.719,0.719v17.597C670.897,270.262,670.573,270.586,670.178,270.586z"/>
</g>
<rect x="6.623" y="45.902" fill="#FFFFFF" width="325.374" height="246.546"/>
<g>
	<path fill="#356377" d="M329.415,48.485v241.386H9.205V48.485H329.415 M334.579,43.32H4.041v251.716h330.539V43.32z"/>
	<rect x="5.977" y="85.8" fill="#356377" width="326.562" height="5.165"/>
</g>
<circle fill="#E04F5F" cx="35.08" cy="67.501" r="8.124"/>
<circle fill="#25B6D2" cx="61.699" cy="67.501" r="8.124"/>
<circle fill="#32BEA6" cx="88.333" cy="67.501" r="8.124"/>
<g>
	<path fill="#415E72" d="M76.899,163.719c3.848-0.63,7.747-0.924,11.646-0.868c4.38-0.336,8.739,0.873,12.328,3.409
		c2.675,2.309,4.173,5.691,4.085,9.224c0.17,3.527-1.141,6.962-3.615,9.477c-3.646,3.156-8.382,4.762-13.196,4.462
		c-1.245,0.021-2.489-0.062-3.719-0.248v15.732h-7.53V163.719z M84.454,183.169c1.224,0.253,2.469,0.362,3.719,0.315
		c5.681,0,9.167-2.789,9.167-7.68c0-4.648-3.223-7.127-8.491-7.127c-1.477-0.031-2.949,0.093-4.4,0.372L84.454,183.169z"/>
	<path fill="#415E72" d="M116.377,174.74l5.454,16.165c0.62,1.859,1.24,4.132,1.673,5.888h0.181
		c0.516-1.735,1.033-3.966,1.617-5.945l4.705-16.103h8.176l-7.556,20.561c-4.132,11.28-6.941,16.289-10.531,19.388
		c-2.216,2.066-4.999,3.424-7.99,3.904l-1.735-6.44c1.606-0.413,3.119-1.131,4.457-2.107c1.74-1.234,3.156-2.866,4.132-4.767
		c0.279-0.408,0.454-0.878,0.516-1.369c-0.021-0.522-0.17-1.033-0.434-1.482l-11.027-27.688L116.377,174.74z"/>
	<path fill="#415E72" d="M151.332,166.131v8.609h7.231v5.681h-7.231v13.314c0,3.657,0.992,5.578,3.904,5.578
		c1.002,0.01,1.999-0.114,2.97-0.372l0.124,5.821c-1.782,0.558-3.646,0.811-5.511,0.749c-2.438,0.119-4.813-0.78-6.564-2.474
		c-1.813-2.417-2.655-5.423-2.355-8.429v-14.167h-4.338v-5.681h4.333v-6.833L151.332,166.131z"/>
	<path fill="#415E72" d="M164.352,160.914h7.675v17.968h0.124c0.945-1.462,2.241-2.655,3.775-3.471
		c1.586-0.909,3.383-1.379,5.206-1.363c5.165,0,10.531,3.404,10.531,13.067v17.777h-7.613v-16.894c0-4.4-1.611-7.68-5.821-7.68
		c-2.68,0-5.056,1.725-5.888,4.276c-0.243,0.739-0.351,1.513-0.315,2.288v18.025h-7.675V160.914z"/>
	<path fill="#415E72" d="M228.482,189.547c0.609,8.232-5.568,15.401-13.8,16.01c-0.563,0.041-1.131,0.052-1.694,0.031
		c-8.052,0.31-14.823-5.965-15.132-14.017c-0.021-0.511-0.01-1.023,0.021-1.529c-0.615-8.201,5.531-15.349,13.733-15.964
		c0.625-0.046,1.25-0.057,1.875-0.021c7.979-0.315,14.709,5.893,15.024,13.877C228.528,188.473,228.518,189.01,228.482,189.547z
		 M205.757,189.862c0,5.821,2.851,10.221,7.494,10.221c4.333,0,7.37-4.271,7.37-10.329c0-4.705-2.107-10.097-7.308-10.097
		c-5.397-0.021-7.561,5.185-7.561,10.18L205.757,189.862z"/>
	<path fill="#415E72" d="M234.757,183.727c0-3.471-0.067-6.378-0.253-8.981h6.714l0.367,4.524h0.186
		c2.035-3.331,5.697-5.32,9.601-5.206c5.268,0,10.717,3.404,10.717,12.948v17.901h-7.639v-17.043c0-4.338-1.611-7.623-5.759-7.623
		c-2.732,0.062-5.118,1.854-5.945,4.457c-0.238,0.806-0.346,1.642-0.315,2.479v17.715h-7.675L234.757,183.727L234.757,183.727z"/>
</g>
<g>
	<g>
		<path fill="#004A94" d="M234.504,112.263c-5.408,0-8.98,2.246-8.98,4.388v6.835h8.98v1.02h-16.835
			c-2.143,0-4.388,3.572-4.388,8.98c0,5.409,2.245,8.98,4.388,8.98h6.834v-4.271c0-2.879,2.342-5.221,5.221-5.221l9.559-0.001
			c2.316,0,4.201-1.885,4.201-4.201v-7.384h0.001v-4.738C243.483,114.509,239.912,112.263,234.504,112.263z"/>
		<circle fill="#FFFFFF" cx="229.637" cy="118.316" r="1.292"/>
	</g>
	<g>
		<path fill="#FB9200" d="M251.339,124.507h-6.835v4.266c0,2.879-2.342,5.221-5.221,5.221l-9.56,0.001c-2.316,0-4.2,1.885-4.2,4.201
			v4.712l0.001-0.001v7.415c0,2.143,3.572,4.388,8.98,4.388c5.409,0,8.98-2.246,8.98-4.388v-6.835h-8.98v-1.02h16.835
			c2.143,0,4.388-3.572,4.388-8.98S253.482,124.507,251.339,124.507z"/>
		<circle fill="#FFFFFF" cx="239.37" cy="148.659" r="1.292"/>
	</g>
</g>
</svg>
