<svg xmlns="http://www.w3.org/2000/svg" xmlns:xlink="http://www.w3.org/1999/xlink" version="1.1" id="Capa_1" x="0" y="0" width="512" height="512" viewBox="0 0 31.71 31.71" xml:space="preserve" enable-background="new 0 0 31.709 31.709">
  <path d="M10.6 25.72H4.7c-1.13 0-2.06-0.89-2.06-2.01V5.42c0-1.13 0.93-2.01 2.06-2.01h14.28c1.13 0 2.05 0.88 2.05 2.01v15.32l2.64-3.13V3.46c0-1.48-1.17-2.68-2.65-2.68H2.56C1.14 0.78 0 1.93 0 3.35v22.38c0 1.48 1.19 2.69 2.67 2.69h10.36l-1.22-1.06C11.27 26.9 10.86 26.33 10.6 25.72z" fill="#2196f3"/>
  <path d="M17.88 6.79H6.03c-0.73 0-1.31 0.59-1.31 1.32 0 0.73 0.59 1.32 1.31 1.32h11.84c0.73 0 1.31-0.59 1.31-1.32C19.19 7.39 18.6 6.79 17.88 6.79z" fill="#2196f3"/>
  <path d="M17.88 11.19H6.03c-0.73 0-1.31 0.59-1.31 1.32 0 0.72 0.59 1.32 1.31 1.32h11.84c0.73 0 1.31-0.59 1.31-1.32C19.19 11.78 18.6 11.19 17.88 11.19z" fill="#2196f3"/>
  <path d="M17.88 15.58H6.03c-0.73 0-1.31 0.56-1.31 1.29 0 0.73 0.59 1.28 1.31 1.28h11.84c0.73 0 1.31-0.56 1.31-1.28C19.19 16.14 18.6 15.58 17.88 15.58z" fill="#2196f3"/>
  <path d="M4.72 21.06c0 0.73 0.59 1.28 1.31 1.28h4.42c0.19-0.47 0.47-1.02 0.86-1.48 0.41-0.47 0.89-0.82 1.41-1.09H6.03C5.31 19.77 4.72 20.33 4.72 21.06z" fill="#2196f3"/>
  <path d="M17.88 19.77h-0.99c0.32 0.14 0.63 0.37 0.92 0.61l1.31 1.12c0.05-0.13 0.08-0.28 0.08-0.44C19.19 20.35 18.6 19.77 17.88 19.77z" fill="#2196f3"/>
  <path d="M30.9 16.25c-0.96-0.83-2.42-0.71-3.25 0.26l-7.56 8.87 -3.78-3.25c-0.97-0.83-2.42-0.72-3.25 0.25 -0.83 0.97-0.72 2.42 0.25 3.25l5.53 4.75c0.42 0.36 0.95 0.56 1.5 0.56 0.06 0 0.12 0 0.18-0.01 0.61-0.05 1.18-0.34 1.57-0.8l9.07-10.63C31.98 18.53 31.87 17.08 30.9 16.25z" fill="#2196f3"/>
</svg>
