<svg width="512" height="228" viewBox="0 0 512 228" version="1.1" xmlns="http://www.w3.org/2000/svg" xmlns:xlink="http://www.w3.org/1999/xlink" preserveAspectRatio="xMidYMid">
  <defs>
    <linearGradient x1="57.66" y1="2.05" x2="57.66" y2="94.44" id="linearGradient-1">
      <stop stop-color="#97D9F6" offset="0"/>
      <stop stop-color="#0F80CC" offset="92.02"/>
      <stop stop-color="#0F80CC" offset="100"/>
    </linearGradient>
  </defs>
  <path d="M194.52 112.04C187.7 112.04 182.15 114.06 177.9 118.1 173.65 122.14 171.49 127.43 171.49 133.92 171.49 137.29 172.03 140.35 173.08 143.16 174.14 145.98 175.78 148.58 177.99 150.94 180.2 153.3 184.62 156.5 191.2 160.57 199.29 165.51 204.58 169.51 207.12 172.64 209.66 175.77 210.92 179.04 210.92 182.45 210.92 187.02 209.41 190.67 206.32 193.41 203.22 196.16 199.08 197.52 193.94 197.52 188.53 197.52 183.81 195.62 179.76 191.82 175.7 188.03 173.66 183 173.61 176.71L171.09 176.71 171.09 199.56 173.61 199.56C174.38 197.39 175.45 196.29 176.84 196.29 177.51 196.29 179.08 196.75 181.52 197.61 187.47 199.73 192.36 200.75 196.2 200.75 202.82 200.75 208.46 198.43 213.17 193.72 217.87 189.02 220.24 183.34 220.24 176.71 220.24 171.57 218.68 166.99 215.6 163.01 212.53 159.01 206.55 154.37 197.61 149.04 189.92 144.42 184.93 140.66 182.63 137.72 180.32 134.79 179.14 131.56 179.14 128 179.14 124.15 180.55 121.07 183.34 118.76 186.12 116.46 189.77 115.31 194.34 115.31 199.48 115.31 203.77 116.84 207.16 119.91 210.55 122.99 212.51 127.25 213.08 132.73L215.6 132.73 215.6 112.93 213.26 112.93C212.97 113.94 212.71 114.58 212.46 114.87 212.23 115.16 211.77 115.31 211.09 115.31 210.28 115.31 208.83 114.97 206.76 114.3 202.34 112.81 198.27 112.04 194.52 112.04L194.52 112.04ZM276.86 112.04C268.55 112.04 261.01 114 254.19 117.92 247.36 121.84 241.96 127.27 237.97 134.19 233.98 141.11 232 148.46 232 156.29 232 166.81 235.44 176.18 242.39 184.4 249.33 192.61 257.66 197.72 267.31 199.69 269.52 200.84 272.68 203.81 276.82 208.62 281.48 214.04 285.42 217.96 288.66 220.29 291.9 222.62 295.4 224.33 299.09 225.46 302.79 226.58 306.79 227.14 311.12 227.14 316.35 227.14 321.04 226.23 325.17 224.35L324.24 222.06C321.85 222.92 319.29 223.34 316.6 223.34 312.94 223.34 309.25 222.13 305.55 219.71 301.85 217.29 297.23 212.66 291.71 205.83 289.12 202.56 287.33 200.5 286.32 199.69 296.89 197.63 305.58 192.51 312.35 184.31 319.13 176.12 322.52 166.77 322.52 156.29 322.52 143.84 318.09 133.39 309.3 124.86 300.51 116.34 289.69 112.04 276.86 112.04L276.86 112.04ZM328.27 112.04L328.4 114.74C333.93 114.74 337.03 116.37 337.72 119.65 337.98 120.82 338.1 122.98 338.12 126.1L338.08 185.72C338.03 190.18 337.4 193.02 336.18 194.25 334.96 195.48 332.89 196.25 329.9 196.55L329.77 199.25 384.93 199.25 386.34 185.72 383.82 185.72C383.1 189.41 381.45 192.05 378.83 193.55 376.2 195.06 371.54 195.8 364.82 195.8L359.6 195.8C353.55 195.8 350.05 193.61 349.13 189.22 348.94 188.35 348.87 187.41 348.86 186.39L349.08 126.1C349.08 121.65 349.64 118.67 350.81 117.22 351.98 115.76 354.1 114.95 357.17 114.74L357.04 112.04 328.27 112.04 328.27 112.04ZM277.75 115.31C287.12 115.31 294.77 119.01 300.69 126.45 306.6 133.9 309.52 144.11 309.52 157.04 309.52 169.29 306.55 179.1 300.6 186.48 294.64 193.85 286.71 197.52 276.86 197.52 267.4 197.52 259.72 193.74 253.83 186.12 247.95 178.51 245.04 168.62 245.04 156.46 245.04 143.97 247.99 133.97 253.92 126.5 259.86 119.03 267.8 115.31 277.75 115.31L277.75 115.31ZM404.6 128.13C403.25 128.13 402.23 128.59 401.46 129.5 400.67 130.42 400.43 131.52 400.71 132.86 400.97 134.16 401.71 135.3 402.87 136.27 404.03 137.23 405.28 137.72 406.63 137.72 407.93 137.72 408.92 137.23 409.64 136.27 410.35 135.3 410.57 134.16 410.3 132.86 410.02 131.52 409.32 130.42 408.22 129.5 407.11 128.59 405.9 128.13 404.6 128.13L404.6 128.13ZM440.97 137.28C438.69 146.08 433.73 150.83 426.12 151.6L426.21 154.12 435.09 154.12 434.92 183.91C434.93 189 435.09 192.4 435.45 194.12 436.32 198.25 439.02 200.35 443.54 200.35 450.07 200.35 456.92 196.37 464.09 188.42L461.92 186.56C456.75 191.8 452.17 194.43 448.18 194.43 445.72 194.43 444.2 193.02 443.62 190.23 443.47 189.56 443.4 188.76 443.4 187.85L443.49 154.12 457.06 154.12 456.93 150.1 443.54 150.1 443.54 137.28 440.97 137.28 440.97 137.28ZM493.44 148.51C485.85 148.51 479.67 152.19 474.87 159.51 470.1 166.85 468.62 174.97 470.5 183.91 471.6 189.15 473.8 193.21 477.17 196.07 480.53 198.93 484.8 200.35 489.9 200.35 494.65 200.35 501.26 199.15 504.04 196.73 506.83 194.31 509.4 190.39 511.78 185.02L509.88 183.03C506.09 190 498.45 193.5 492.69 193.5 484.76 193.5 479.91 189.16 478.1 180.51 477.86 179.4 477.69 178.22 477.57 176.97 487 175.48 494.14 172.84 498.96 169.02 503.78 165.19 508.62 161.14 507.71 156.86 507.18 154.32 505.85 152.32 503.82 150.81 501.77 149.3 496.42 148.51 493.44 148.51L493.44 148.51ZM410.48 148.82L394.12 152.57 394.12 155.49 399.78 154.78C402.52 154.78 404.13 156.03 404.64 158.5 404.81 159.32 404.92 160.49 404.95 161.94L404.77 188.69C404.73 192.39 404.32 194.54 403.49 195.18 402.66 195.83 400.46 196.15 396.91 196.15L396.82 198.67 422.76 198.67 422.72 196.15C419.11 196.15 416.78 195.87 415.73 195.31 414.71 194.76 414.01 193.76 413.7 192.22 413.47 191.11 413.36 189.2 413.35 186.56L413.44 148.82 410.48 148.82 410.48 148.82ZM489.28 153.77C490.86 153.77 492.39 154.38 493.92 155.58 495.44 156.78 496.36 158.11 496.66 159.56 498.14 166.67 491.84 171.58 477.66 174.32 477.25 169.14 478.15 164.43 480.44 160.18 482.72 155.93 485.68 153.77 489.28 153.77L489.28 153.77Z" fill="#003B57"/>
  <path d="M157.89 9.95L17.15 9.95C7.72 9.95 0 17.67 0 27.1L0 182.31C0 191.74 7.72 199.46 17.15 199.46L109.84 199.46C108.79 153.34 124.54 63.83 157.89 9.95L157.89 9.95Z" fill="#0F80CC"/>
  <path d="M152.77 14.96L17.15 14.96C10.45 14.96 5 20.4 5 27.1L5 170.99C35.72 159.2 81.82 149.03 113.7 149.49 120.1 115.99 138.93 50.35 152.77 14.96L152.77 14.96Z" fill="url(#linearGradient-1)"/>
  <path d="M190.72 4.87C181.08-3.72 169.41-0.27 157.89 9.95 156.18 11.47 154.47 13.16 152.77 14.96 133.07 35.86 114.78 74.58 109.1 104.14 111.31 108.63 113.04 114.36 114.18 118.74 114.47 119.86 114.74 120.91 114.95 121.81 115.45 123.93 115.71 125.31 115.71 125.31 115.71 125.31 115.54 124.64 114.81 122.54 114.68 122.13 114.52 121.69 114.34 121.18 114.26 120.96 114.15 120.7 114.04 120.42 112.75 117.44 109.19 111.13 107.63 108.38 106.29 112.33 105.11 116.03 104.12 119.37 108.64 127.63 111.39 141.8 111.39 141.8 111.39 141.8 111.15 140.88 110.01 137.67 109.01 134.84 103.99 126.05 102.8 123.99 100.77 131.5 99.96 136.57 100.69 137.8 102.1 140.19 103.45 144.32 104.63 148.88 107.3 159.16 109.16 171.68 109.16 171.68 109.16 171.68 109.22 172.51 109.32 173.78 108.95 182.42 109.18 191.37 109.84 199.46 110.73 210.17 112.4 219.37 114.52 224.29L115.96 223.51C112.84 213.81 111.58 201.09 112.13 186.43 112.97 164.02 118.13 136.99 127.66 108.82 143.76 66.3 166.09 32.18 186.54 15.89 167.9 32.72 142.68 87.19 135.14 107.36 126.68 129.94 120.69 151.14 117.08 171.45 123.31 152.41 143.45 144.23 143.45 144.23 143.45 144.23 153.33 132.04 164.87 114.64 157.96 116.22 146.6 118.92 142.8 120.52 137.19 122.87 135.68 123.67 135.68 123.67 135.68 123.67 153.85 112.61 169.44 107.6 190.88 73.83 214.24 25.86 190.72 4.87" fill="#003B57"/>
</svg>
