<svg width="256" height="290" viewBox="0 0 256 290" version="1.1" xmlns="http://www.w3.org/2000/svg" xmlns:xlink="http://www.w3.org/1999/xlink" preserveAspectRatio="xMidYMid">
  <path d="M241.03 73.9L130.42 9.66 9.66 77.28 9.66 212.53 130.42 280.15 246.34 212.53 246.34 77.28 246.34 71.49 241.03 73.9Z" fill="#202A5A"/>
  <path d="M9.66 77.28L130.42 144.91 246.34 77.28 130.42 9.66 9.66 77.28Z" fill="#2C448A"/>
  <path d="M246.34 71.49L207.7 91.77 207.22 100.47 130.42 144.91 130.42 280.15 246.34 212.53 246.34 71.49Z" fill="#283A79"/>
  <path d="M9.66 77.28L9.66 212.53 130.42 280.15 130.42 144.91 9.66 77.28Z" fill="#202A5A"/>
  <path d="M0 212.53L0 169.06 130.42 246.34 130.42 289.81 0 212.53Z" fill="#3558A7"/>
  <path d="M0 77.28L0 101.43 130.42 178.72 130.42 154.57 0 77.28Z" fill="#3558A7"/>
  <path d="M256 212.53L256 188.38 150.22 142.49 130.42 154.57 130.42 178.23 194.66 206.73 130.42 246.34 130.42 289.81 256 212.53Z" fill="#416FB5"/>
  <path d="M194.66 206.73L186.93 203.83 130.42 236.68 9.66 169.06 9.66 163.26 0 169.06 130.42 246.34 194.66 206.73Z" fill="#477FC1"/>
  <path d="M57 86.94L130.42 43.47 207.7 91.77 246.34 71.49 130.42 0 0 77.28 130.42 154.57 150.22 142.49 57 86.94Z" fill="#477FC1"/>
  <path d="M207.22 100.47L207.7 91.77 130.42 43.47 57 86.94 65.21 91.77 130.42 53.13 207.22 100.47Z" fill="#202A5A"/>
</svg>
