<svg width="256" height="263" viewBox="0 0 256 263" version="1.1" xmlns="http://www.w3.org/2000/svg" xmlns:xlink="http://www.w3.org/1999/xlink" preserveAspectRatio="xMidYMid">
  <g fill="#222C37">
    <path d="M166.87 131.24L212.78 51.96 234.97 131.24 212.78 210.49 166.87 131.24 166.87 131.24ZM144.5 144.11L190.41 223.37 110.45 202.89 52.68 144.11 144.5 144.11 144.5 144.11ZM190.4 39.08L144.5 118.35 52.68 118.35 110.45 59.57 190.4 39.08 190.4 39.08ZM255.94 104.26L227.93 0.06 123.39 27.99 107.92 55.19 76.52 54.97 0 131.24 76.52 207.5 76.52 207.5 107.91 207.27 123.4 234.48 227.93 262.4 255.94 158.22 240.04 131.24 255.94 104.26 255.94 104.26Z"/>
  </g>
</svg>
