<svg xmlns="http://www.w3.org/2000/svg" version="1.1" x="0" y="0" width="512" height="512" viewBox="0 0 48.6 48.6" xml:space="preserve" enable-background="new 0 0 48.625 48.625"><polygon points="35.4 10.8 35.5 11.2 34.9 11.3 34.9 12.1 35.5 12.1 36.4 12 36.8 11.5 36.4 11.3 36.1 11 35.7 10.3 35.5 9.4 34.8 9.6 34.6 9.9 34.6 10.3 34.9 10.5 " fill="#2196f3"/><polygon points="34.8 11.1 34.9 10.6 34.4 10.4 33.8 10.6 33.4 11.3 33.4 11.8 33.9 11.8 " fill="#2196f3"/><path d="M22.5 13.2l-0.1 0.3h-0.6v0.3h0.2c0 0 0 0.1 0 0.2l0.4 0 0.3-0.1 0.1-0.3 0.3 0 0.1-0.3-0.3-0.1L22.5 13.2z" fill="#2196f3"/><polygon points="20.8 13.8 20.8 14.1 21.3 14 21.3 13.7 21 13.5 " fill="#2196f3"/><path d="M48.6 24.1c0-0.7 0-1.4-0.1-2.1-0.2-2.3-0.8-4.5-1.6-6.6-0.1-0.1-0.1-0.3-0.2-0.5-1.1-2.6-2.7-5-4.6-7-0.1-0.1-0.2-0.3-0.4-0.4-0.4-0.4-0.7-0.7-1.1-1.1C36.3 2.4 30.6 0 24.3 0 18 0 12.2 2.4 7.9 6.4 6.8 7.4 5.9 8.4 5.1 9.5 1.9 13.6 0 18.7 0 24.3c0 13.4 10.9 24.3 24.3 24.3 9.4 0 17.6-5.4 21.7-13.3 0.9-1.7 1.5-3.5 2-5.3 0.1-0.5 0.2-1 0.3-1.4 0.3-1.4 0.4-2.8 0.4-4.2C48.6 24.2 48.6 24.2 48.6 24.1zM44 14.3l0.1-0.2c0.2 0.4 0.4 0.7 0.5 1.1l-0.2 0-0.4 0.1V14.3zM40.5 10.1l0-1.1c0.4 0.4 0.8 0.8 1.1 1.3l-0.4 0.7-1.5 0-0.1-0.3L40.5 10.1zM11.2 7.4V7.4h0.5l0-0.2h0.8v0.4l-0.2 0.3h-1.1L11.2 7.4 11.2 7.4zM12 8.5c0 0 0.5-0.1 0.5-0.1s0 0.5 0 0.5L11.4 9l-0.2-0.2L12 8.5zM45.6 18.1h-1.8l-1.1-0.8-1.1 0.1v0.7h-0.4l-0.4-0.3-2-0.5v-1.3l-2.5 0.2-0.8 0.4h-1L34.1 16.6l-1.2 0.7v1.3l-2.5 1.8 0.2 0.8h0.5L31 21.8l-0.3 0.1 0 1.9 2.1 2.4h0.9l0.1-0.1h1.7l0.5-0.4h1l0.5 0.5 1.4 0.2-0.2 1.9 1.6 2.8-0.8 1.6 0.1 0.7 0.7 0.7v1.8l0.9 1.2v1.5h0.7c-4.1 5-10.3 8.3-17.3 8.3C12 46.6 2 36.6 2 24.3c0-3.1 0.6-6 1.8-8.7v-0.7l0.8-1c0.3-0.5 0.6-1 0.9-1.5l0 0.4-0.9 1.1c-0.3 0.5-0.6 1.1-0.8 1.7v1.3l0.9 0.5v1.8l0.9 1.5 0.7 0.1 0.1-0.5-0.8-1.3-0.2-1.3h0.5l0.2 1.3 1.2 1.8L7 21.3l0.8 1.2 2 0.5v-0.3l0.8 0.1-0.1 0.6 0.6 0.1 1 0.3 1.3 1.5 1.7 0.1 0.2 1.4-1.2 0.8 0 1.2-0.2 0.8 1.7 2.1 0.1 0.7c0 0 0.6 0.2 0.7 0.2 0.1 0 1.4 1 1.4 1v3.8l0.5 0.1-0.3 1.8 0.8 1-0.1 1.8 1 1.8 1.3 1.2 1.3 0 0.1-0.4-1-0.8 0.1-0.4 0.2-0.5 0-0.5-0.7 0-0.3-0.4 0.6-0.5 0.1-0.4-0.6-0.2 0-0.4 0.9-0.1 1.3-0.6 0.5-0.8 1.4-1.8-0.3-1.4 0.4-0.7 1.3 0 0.9-0.7 0.3-2.7 1-1.2 0.2-0.8-0.9-0.3-0.6-0.9-2 0-1.6-0.6-0.1-1.1-0.5-0.9-1.4 0-0.8-1.3-0.7-0.3 0 0.4-1.3 0.1-0.5-0.7-1.4-0.3-1.1 1.3-1.8-0.3-0.1-2-1.3-0.2 0.5-1-0.1-0.6-1.7 1.1-1.1-0.1L9.5 21l0.2-0.9 0.6-1.1 1.4-0.7 2.6 0 0 0.8 1 0.4-0.1-1.4 0.7-0.7 1.4-0.9 0.1-0.6 1.4-1.4 1.5-0.8-0.1-0.1 1-0.9 0.4 0.1 0.2 0.2 0.4-0.4 0.1 0-0.4-0.1-0.4-0.1v-0.4l0.2-0.2h0.5l0.2 0.1 0.2 0.4 0.2 0v0l0.1 0 0.7-0.1 0.1-0.3 0.4 0.1v0.4l-0.4 0.3h0l0.1 0.4 1.2 0.4c0 0 0 0 0 0l0.3 0 0-0.5-1-0.4-0.1-0.3 0.8-0.3 0-0.8-0.8-0.5-0.1-1.3-1.2 0.6h-0.4l0.1-1-1.6-0.4-0.7 0.5v1.5l-1.2 0.4-0.5 1-0.5 0.1v-1.3l-1.1-0.1-0.6-0.4-0.2-0.8 2-1.2 1-0.3 0.1 0.7 0.5 0 0-0.3 0.6-0.1 0-0.1-0.2-0.1-0.1-0.3 0.7-0.1 0.4-0.4 0 0 0 0 0.1-0.1 1.5-0.2 0.7 0.6-1.7 0.9 2.2 0.5 0.3-0.7h1l0.3-0.6-0.7-0.2V6.2L22.7 5.3l-1.4 0.2-0.8 0.4 0.1 1-0.8-0.1L19.5 6.2l0.8-0.7-1.5-0.1-0.4 0.1-0.2 0.5 0.6 0.1-0.1 0.6-0.9 0.1-0.1 0.4-1.4 0c0 0 0-0.8-0.1-0.8 0 0 1.1 0 1.1 0l0.8-0.8-0.4-0.2-0.6 0.6-1-0.1-0.6-0.8h-1.3L12.8 6h1.2l0.1 0.4-0.3 0.3 1.3 0 0.2 0.5-1.5-0.1-0.1-0.4L12.8 6.5 12.3 6.3l-1.1 0C14.9 3.6 19.4 2 24.3 2c5.6 0 10.8 2.1 14.7 5.6l-0.3 0.5-1 0.4-0.4 0.5 0.1 0.6 0.5 0.1 0.3 0.8 0.9-0.4 0.2 1.1h-0.3l-0.7-0.1-0.8 0.1-0.8 1.1-1.1 0.2-0.2 1 0.5 0.1-0.1 0.6-1.1-0.2-1 0.2-0.2 0.6 0.2 1.2 0.6 0.3 1 0 0.7-0.1 0.2-0.6 1.1-1.4 0.7 0.2 0.7-0.6 0.1 0.5 1.7 1.2-0.2 0.3-0.8 0 0.3 0.4 0.5 0.1 0.6-0.2 0-0.7 0.3-0.1-0.2-0.2-1.2-0.6-0.3-0.9h1l0.3 0.3 0.8 0.7 0 0.9 0.9 0.9 0.3-1.3 0.6-0.3 0.1 1 0.6 0.6 1.2 0c0.2 0.6 0.4 1.2 0.6 1.8L45.6 18.1zM13.3 11.1l0.6-0.3 0.5 0.1-0.2 0.7-0.6 0.2L13.3 11.1zM16.4 12.7v0.5h-1.3l-0.5-0.1 0.1-0.3 0.6-0.3h0.9v0.3H16.4zM17 13.4V13.8l-0.3 0.2-0.4 0.1c0 0 0-0.7 0-0.7H17zM16.6 13.2v-0.5l0.5 0.4L16.6 13.2zM16.8 14.2v0.4l-0.3 0.3h-0.7l0.1-0.5 0.3 0 0.1-0.2L16.8 14.2zM15 13.4h0.7l-0.9 1.3-0.4-0.2 0.1-0.6L15 13.4zM18.1 14.1v0.4H17.4l-0.2-0.3v-0.4h0.1L18.1 14.1zM17.4 13.5l0.2-0.2 0.3 0.2-0.3 0.2L17.4 13.5zM46 19.3l0.1-0.1c0 0.1 0.1 0.3 0.1 0.4L46 19.3zM3.8 14.9v0.7c0.2-0.6 0.5-1.1 0.8-1.7L3.8 14.9z" fill="#2196f3"/></svg>