<?xml version="1.0" encoding="utf-8"?>
<!-- Generator: Adobe Illustrator 17.0.0, SVG Export Plug-In . SVG Version: 6.00 Build 0)  -->
<!DOCTYPE svg PUBLIC "-//W3C//DTD SVG 1.1//EN" "http://www.w3.org/Graphics/SVG/1.1/DTD/svg11.dtd">
<svg version="1.1" id="Layer_1" xmlns="http://www.w3.org/2000/svg" xmlns:xlink="http://www.w3.org/1999/xlink" x="0px" y="0px"
	 width="339px" height="337.026px" viewBox="0 0 339 337.026" enable-background="new 0 0 339 337.026" xml:space="preserve">
<g>
	<path fill="#4B5E66" d="M766.25,327.689H642.164c-7.785,0-14.095-6.31-14.095-14.095V65.784c0-7.785,6.31-14.095,14.095-14.095
		h124.091c7.78,0,14.09,6.31,14.09,14.095v247.815C780.345,321.379,774.035,327.689,766.25,327.689z"/>
	<rect x="628.069" y="80.241" fill="#2D1930" width="152.276" height="209.379"/>
	<g>
		<path fill="#273035" d="M723.241,61.206h-23.793c-2.627,0-4.759,2.127-4.759,4.759c0,2.632,2.132,4.759,4.759,4.759h23.793
			c2.627,0,4.759-2.127,4.759-4.759C728,63.333,725.868,61.206,723.241,61.206z"/>
		<path fill="#273035" d="M685.172,61.206h-4.759c-2.627,0-4.759,2.127-4.759,4.759c0,2.632,2.132,4.759,4.759,4.759h4.759
			c2.627,0,4.759-2.127,4.759-4.759C689.931,63.333,687.799,61.206,685.172,61.206z"/>
	</g>
	
		<line fill="none" stroke="#CBD4D8" stroke-width="2" stroke-linecap="round" stroke-miterlimit="10" x1="623.31" y1="94.517" x2="623.31" y2="99.275"/>
	
		<line fill="none" stroke="#CBD4D8" stroke-width="2" stroke-linecap="round" stroke-miterlimit="10" x1="623.31" y1="113.551" x2="623.31" y2="118.31"/>
	
		<line fill="none" stroke="#CBD4D8" stroke-width="2" stroke-linecap="round" stroke-miterlimit="10" x1="623.31" y1="132.586" x2="623.31" y2="137.344"/>
	<circle fill="#273035" cx="704.207" cy="308.655" r="14.276"/>
	<path fill="#DD352E" d="M755.833,270.586h-17.597c-0.395,0-0.719-0.324-0.719-0.719V252.27c0-0.395,0.324-0.719,0.719-0.719h17.597
		c0.395,0,0.719,0.324,0.719,0.719v17.597C756.552,270.262,756.228,270.586,755.833,270.586z"/>
	<path fill="#3083C9" d="M713.006,270.586h-17.597c-0.395,0-0.719-0.324-0.719-0.719V252.27c0-0.395,0.324-0.719,0.719-0.719h17.597
		c0.395,0,0.719,0.324,0.719,0.719v17.597C713.724,270.262,713.401,270.586,713.006,270.586z"/>
	<path fill="#A4E869" d="M670.178,270.586h-17.597c-0.395,0-0.719-0.324-0.719-0.719V252.27c0-0.395,0.324-0.719,0.719-0.719h17.597
		c0.395,0,0.719,0.324,0.719,0.719v17.597C670.897,270.262,670.573,270.586,670.178,270.586z"/>
</g>
<g>
	<g>
		<path fill="#1C769B" d="M6.722,167.995c0,64.626,37.554,120.483,92.02,146.939L20.854,101.546
			C11.805,121.845,6.722,144.319,6.722,167.995z"/>
		<path fill="#1C769B" d="M172.865,182.274l-48.994,142.357c14.637,4.303,30.096,6.652,46.129,6.652
			c19.009,0,37.248-3.287,54.219-9.254c-0.432-0.706-0.837-1.438-1.164-2.249L172.865,182.274z"/>
		<path fill="#1C769B" d="M280.228,159.762c0-20.188-7.258-34.157-13.463-45.028c-8.285-13.468-16.049-24.855-16.049-38.297
			c0-15.016,11.382-28.99,27.42-28.99c0.727,0,1.412,0.1,2.107,0.137C251.217,20.966,212.505,4.717,170,4.717
			c-57.052,0-107.226,29.269-136.416,73.591c3.834,0.121,7.442,0.2,10.502,0.2c17.07,0,43.521-2.075,43.521-2.075
			c8.796-0.527,9.828,12.414,1.032,13.447c0,0-8.843,1.043-18.687,1.564l59.459,176.851l35.737-107.163l-25.424-69.688
			c-8.806-0.521-17.139-1.564-17.139-1.564c-8.796-0.521-7.769-13.968,1.043-13.447c0,0,26.962,2.075,43.005,2.075
			c17.076,0,43.516-2.075,43.516-2.075c8.806-0.527,9.839,12.414,1.038,13.447c0,0-8.854,1.043-18.682,1.564l59.006,175.508
			l16.301-54.414C274.845,189.942,280.228,173.731,280.228,159.762z"/>
		<path fill="#1C769B" d="M314.385,106.45c0,16.565-3.097,35.189-12.425,58.485l-49.868,144.185
			c48.541-28.294,81.186-80.891,81.186-141.119c0-28.395-7.253-55.083-19.999-78.342C313.99,94.862,314.385,100.435,314.385,106.45z
			"/>
	</g>
	<path fill="#2795B7" d="M250.722,76.433c0-15.016,11.382-28.99,27.42-28.99c0.727,0,1.412,0.1,2.107,0.137
		C251.217,20.966,212.505,4.717,170,4.717c-57.052,0-107.226,29.269-136.416,73.591c3.834,0.121,7.442,0.2,10.502,0.2
		c17.07,0,43.521-2.075,43.521-2.075c8.796-0.527,9.828,12.414,1.032,13.447c0,0-8.843,1.043-18.687,1.564l22.675,67.439
		c15.427,5.446,32.139,8.443,49.594,8.443c7.263,0,14.4-0.521,21.379-1.517l1.554-4.672L139.73,91.449
		c-8.806-0.521-17.139-1.564-17.139-1.564c-8.796-0.521-7.769-13.968,1.043-13.447c0,0,26.962,2.075,43.005,2.075
		c17.076,0,43.516-2.075,43.516-2.075c8.806-0.527,9.839,12.414,1.038,13.447c0,0-8.854,1.043-18.682,1.564l19.646,58.443
		c19.941-10.724,36.838-25.866,49.157-44.032C255.378,96.005,250.722,86.83,250.722,76.433z"/>
	<path fill="#3FB5D1" d="M170,4.717c-51.232,0-96.866,23.649-126.804,60.56c26.277,5.462,55.135,8.49,85.421,8.49
		c57.347,0,109.596-10.834,148.883-28.605C248.784,20.002,211.183,4.717,170,4.717z"/>
</g>
</svg>
